<svg xmlns="http://www.w3.org/2000/svg" xmlns:xlink="http://www.w3.org/1999/xlink" viewBox="0 0 2467.16 1346.68"><defs><style>.cls-1{mask:url(#mask);filter:url(#luminosity-noclip-14);}.cls-10,.cls-12,.cls-14,.cls-16,.cls-18,.cls-2,.cls-20,.cls-22,.cls-24,.cls-26,.cls-4,.cls-6,.cls-8{mix-blend-mode:multiply;}.cls-2{fill:url(#linear-gradient);}.cls-3{mask:url(#mask-2);filter:url(#luminosity-noclip-19);}.cls-4{fill:url(#linear-gradient-2);}.cls-5{mask:url(#mask-3);filter:url(#luminosity-noclip-20);}.cls-6{fill:url(#linear-gradient-3);}.cls-7{mask:url(#mask-4);filter:url(#luminosity-noclip-21);}.cls-8{fill:url(#linear-gradient-4);}.cls-9{mask:url(#mask-5);filter:url(#luminosity-noclip-22);}.cls-10{fill:url(#linear-gradient-5);}.cls-11{mask:url(#mask-6);filter:url(#luminosity-noclip-23);}.cls-12{fill:url(#linear-gradient-6);}.cls-13{mask:url(#mask-7);filter:url(#luminosity-noclip-15);}.cls-14{fill:url(#linear-gradient-7);}.cls-15{mask:url(#mask-8);filter:url(#luminosity-noclip-24);}.cls-16{fill:url(#linear-gradient-8);}.cls-17{mask:url(#mask-9);filter:url(#luminosity-noclip-25);}.cls-18{fill:url(#linear-gradient-9);}.cls-19{mask:url(#mask-10);filter:url(#luminosity-noclip-26);}.cls-20{fill:url(#linear-gradient-10);}.cls-21{mask:url(#mask-11);filter:url(#luminosity-noclip-16);}.cls-22{fill:url(#linear-gradient-11);}.cls-23{mask:url(#mask-12);filter:url(#luminosity-noclip-17);}.cls-24{fill:url(#linear-gradient-12);}.cls-25{mask:url(#mask-13);filter:url(#luminosity-noclip-18);}.cls-26{fill:url(#linear-gradient-13);}.cls-27{mask:url(#mask-14);}.cls-28,.cls-30{opacity:0.34;}.cls-28{fill:url(#linear-gradient-14);}.cls-29{mask:url(#mask-15);}.cls-30{fill:url(#linear-gradient-15);}.cls-31{mask:url(#mask-16);}.cls-32{fill:url(#linear-gradient-16);}.cls-33{mask:url(#mask-17);}.cls-34{fill:url(#linear-gradient-17);}.cls-35{mask:url(#mask-18);}.cls-36{fill:url(#linear-gradient-18);}.cls-37{mask:url(#mask-19);}.cls-38{fill:url(#linear-gradient-19);}.cls-39{mask:url(#mask-20);}.cls-40{fill:url(#linear-gradient-20);}.cls-41{mask:url(#mask-21);}.cls-42{fill:url(#linear-gradient-21);}.cls-43{mask:url(#mask-22);}.cls-44{fill:url(#linear-gradient-22);}.cls-45{mask:url(#mask-23);}.cls-46{fill:url(#linear-gradient-23);}.cls-47{mask:url(#mask-24);}.cls-48{fill:url(#linear-gradient-24);}.cls-49{mask:url(#mask-25);}.cls-50{fill:url(#linear-gradient-25);}.cls-51{mask:url(#mask-26);}.cls-52{fill:url(#linear-gradient-26);}.cls-53{fill:url(#linear-gradient-27);}.cls-54{fill:url(#linear-gradient-28);}.cls-55{fill:url(#linear-gradient-29);}.cls-56{fill:url(#linear-gradient-30);}.cls-57{fill:url(#linear-gradient-31);}.cls-58{opacity:0.75;}.cls-59{fill:url(#linear-gradient-32);}.cls-60{fill:url(#linear-gradient-33);}.cls-61{fill:url(#linear-gradient-34);}.cls-62{fill:url(#linear-gradient-35);}.cls-63{fill:url(#linear-gradient-36);}.cls-64{fill:url(#linear-gradient-37);}.cls-65{fill:url(#linear-gradient-38);}.cls-66{fill:url(#linear-gradient-39);}.cls-67{fill:url(#linear-gradient-40);}.cls-68{fill:url(#linear-gradient-41);}.cls-69{fill:url(#linear-gradient-42);}.cls-70{fill:url(#linear-gradient-43);}.cls-71{fill:#8f8f8f;}.cls-72{fill:#f0f0f0;}.cls-73{fill:#ccc;}.cls-74{fill:url(#linear-gradient-44);}.cls-75{fill:#fff;}.cls-76{fill:url(#linear-gradient-45);}.cls-77{fill:url(#linear-gradient-46);}.cls-78{fill:url(#linear-gradient-47);}.cls-79{fill:url(#linear-gradient-48);}.cls-80{fill:url(#linear-gradient-49);}.cls-81{fill:url(#linear-gradient-50);}.cls-82{fill:#f5f7ff;}.cls-83{fill:url(#linear-gradient-51);}.cls-84{fill:url(#linear-gradient-52);}.cls-85{fill:#fafafa;}.cls-86{fill:#e8e8e8;}.cls-87{fill:#da5e5e;}.cls-88{fill:url(#linear-gradient-53);}.cls-89{fill:#e6e6e6;}.cls-90{fill:#78c2ff;}.cls-91{fill:url(#linear-gradient-54);}.cls-92{fill:#d6d6d6;}.cls-93{fill:url(#linear-gradient-55);}.cls-94{fill:url(#linear-gradient-56);}.cls-95{fill:url(#linear-gradient-57);}.cls-96{fill:url(#linear-gradient-58);}.cls-97{fill:url(#linear-gradient-59);}.cls-98{fill:url(#linear-gradient-60);}.cls-99{fill:url(#linear-gradient-61);}.cls-100{fill:url(#linear-gradient-62);}.cls-101{fill:url(#linear-gradient-63);}.cls-102{fill:url(#linear-gradient-64);}.cls-103{fill:url(#linear-gradient-65);}.cls-104{fill:url(#linear-gradient-66);}.cls-105{fill:#c5ccd1;}.cls-106{fill:#eea886;}.cls-107{fill:#162d40;}.cls-108{fill:#0e1e2b;}.cls-109{fill:url(#linear-gradient-67);}.cls-110{fill:#db9c7c;}.cls-111{fill:#eb4747;}.cls-112{fill:#1d3b54;}.cls-113{fill:#fccca2;}.cls-114{fill:#ab3434;}.cls-115{fill:url(#linear-gradient-68);}.cls-116{fill:url(#linear-gradient-69);}.cls-117{fill:url(#linear-gradient-70);}.cls-118{fill:#3c4169;}.cls-119{fill:#252840;}.cls-120{fill:#292c47;}.cls-121{fill:#c4b4af;}.cls-122{fill:#6880eb;}.cls-123{fill:#4a64e0;}.cls-124{fill:#4860cf;}.cls-125{fill:#eddad3;}.cls-126{fill:#deccc6;}.cls-127{fill:#e3d1ca;}.cls-128{fill:#b39696;}.cls-129{fill:#dbb8b8;}.cls-130{fill:#f2cbcb;}.cls-131{fill:#323438;}.cls-132{fill:#efaa88;}.cls-133{fill:#ffad55;}.cls-134{fill:#1d2033;}.cls-135{fill:#eea987;}.cls-136{fill:#d88a51;}.cls-137{fill:#c78d71;}.cls-138{fill:#a09ea6;}.cls-139{fill:#eae6f2;}.cls-140{fill:#3a4066;}.cls-141{filter:url(#luminosity-noclip-13);}.cls-142{filter:url(#luminosity-noclip-12);}.cls-143{filter:url(#luminosity-noclip-11);}.cls-144{filter:url(#luminosity-noclip-10);}.cls-145{filter:url(#luminosity-noclip-9);}.cls-146{filter:url(#luminosity-noclip-8);}.cls-147{filter:url(#luminosity-noclip-7);}.cls-148{filter:url(#luminosity-noclip-6);}.cls-149{filter:url(#luminosity-noclip-5);}.cls-150{filter:url(#luminosity-noclip-4);}.cls-151{filter:url(#luminosity-noclip-3);}.cls-152{filter:url(#luminosity-noclip-2);}.cls-153{filter:url(#luminosity-noclip);}</style><filter id="luminosity-noclip" x="232.58" y="-8910.56" width="128.47" height="32766" filterUnits="userSpaceOnUse" color-interpolation-filters="sRGB"><feFlood flood-color="#fff" result="bg"/><feBlend in="SourceGraphic" in2="bg"/></filter><mask id="mask" x="232.58" y="-8910.56" width="128.47" height="32766" maskUnits="userSpaceOnUse"><g class="cls-153"/></mask><linearGradient id="linear-gradient" x1="296.82" y1="-189.24" x2="296.82" y2="223.67" gradientUnits="userSpaceOnUse"><stop offset="0" stop-color="#fff"/><stop offset="1"/></linearGradient><filter id="luminosity-noclip-2" x="1837.91" y="-8910.56" width="7.54" height="32766" filterUnits="userSpaceOnUse" color-interpolation-filters="sRGB"><feFlood flood-color="#fff" result="bg"/><feBlend in="SourceGraphic" in2="bg"/></filter><mask id="mask-2" x="1837.91" y="-8910.56" width="7.54" height="32766" maskUnits="userSpaceOnUse"><g class="cls-152"/></mask><linearGradient id="linear-gradient-2" x1="1841.68" y1="1010.86" x2="1841.68" y2="-46.25" xlink:href="#linear-gradient"/><filter id="luminosity-noclip-3" x="763.17" y="-8910.56" width="150.83" height="32766" filterUnits="userSpaceOnUse" color-interpolation-filters="sRGB"><feFlood flood-color="#fff" result="bg"/><feBlend in="SourceGraphic" in2="bg"/></filter><mask id="mask-3" x="763.17" y="-8910.56" width="150.83" height="32766" maskUnits="userSpaceOnUse"><g class="cls-151"/></mask><linearGradient id="linear-gradient-3" x1="838.58" y1="-189.24" x2="838.58" y2="223.67" xlink:href="#linear-gradient"/><filter id="luminosity-noclip-4" x="763.17" y="-8910.56" width="96.44" height="32766" filterUnits="userSpaceOnUse" color-interpolation-filters="sRGB"><feFlood flood-color="#fff" result="bg"/><feBlend in="SourceGraphic" in2="bg"/></filter><mask id="mask-4" x="763.17" y="-8910.56" width="96.44" height="32766" maskUnits="userSpaceOnUse"><g class="cls-150"/></mask><linearGradient id="linear-gradient-4" x1="811.39" y1="-189.24" x2="811.39" y2="223.67" xlink:href="#linear-gradient"/><filter id="luminosity-noclip-5" x="1309.09" y="-8910.56" width="93.47" height="32766" filterUnits="userSpaceOnUse" color-interpolation-filters="sRGB"><feFlood flood-color="#fff" result="bg"/><feBlend in="SourceGraphic" in2="bg"/></filter><mask id="mask-5" x="1309.09" y="-8910.56" width="93.47" height="32766" maskUnits="userSpaceOnUse"><g class="cls-149"/></mask><linearGradient id="linear-gradient-5" x1="1355.82" y1="-189.24" x2="1355.82" y2="223.67" xlink:href="#linear-gradient"/><filter id="luminosity-noclip-6" x="1309.09" y="-8910.56" width="108.94" height="32766" filterUnits="userSpaceOnUse" color-interpolation-filters="sRGB"><feFlood flood-color="#fff" result="bg"/><feBlend in="SourceGraphic" in2="bg"/></filter><mask id="mask-6" x="1309.09" y="-8910.56" width="108.94" height="32766" maskUnits="userSpaceOnUse"><g class="cls-148"/></mask><linearGradient id="linear-gradient-6" x1="1363.56" y1="-189.24" x2="1363.56" y2="223.67" xlink:href="#linear-gradient"/><filter id="luminosity-noclip-7" x="232.58" y="-8910.56" width="182.23" height="32766" filterUnits="userSpaceOnUse" color-interpolation-filters="sRGB"><feFlood flood-color="#fff" result="bg"/><feBlend in="SourceGraphic" in2="bg"/></filter><mask id="mask-7" x="232.58" y="-8910.56" width="182.23" height="32766" maskUnits="userSpaceOnUse"><g class="cls-147"/></mask><linearGradient id="linear-gradient-7" x1="323.7" y1="-189.24" x2="323.7" y2="223.67" xlink:href="#linear-gradient"/><filter id="luminosity-noclip-8" x="1845.46" y="-8910.56" width="136.14" height="32766" filterUnits="userSpaceOnUse" color-interpolation-filters="sRGB"><feFlood flood-color="#fff" result="bg"/><feBlend in="SourceGraphic" in2="bg"/></filter><mask id="mask-8" x="1845.46" y="-8910.56" width="136.14" height="32766" maskUnits="userSpaceOnUse"><g class="cls-146"/></mask><linearGradient id="linear-gradient-8" x1="1913.53" y1="-189.24" x2="1913.53" y2="223.67" xlink:href="#linear-gradient"/><filter id="luminosity-noclip-9" x="1845.46" y="-8910.56" width="108.94" height="32766" filterUnits="userSpaceOnUse" color-interpolation-filters="sRGB"><feFlood flood-color="#fff" result="bg"/><feBlend in="SourceGraphic" in2="bg"/></filter><mask id="mask-9" x="1845.46" y="-8910.56" width="108.94" height="32766" maskUnits="userSpaceOnUse"><g class="cls-145"/></mask><linearGradient id="linear-gradient-9" x1="1899.93" y1="-189.24" x2="1899.93" y2="223.67" xlink:href="#linear-gradient"/><filter id="luminosity-noclip-10" x="2374.28" y="-8910.56" width="7.54" height="32766" filterUnits="userSpaceOnUse" color-interpolation-filters="sRGB"><feFlood flood-color="#fff" result="bg"/><feBlend in="SourceGraphic" in2="bg"/></filter><mask id="mask-10" x="2374.28" y="-8910.56" width="7.54" height="32766" maskUnits="userSpaceOnUse"><g class="cls-144"/></mask><linearGradient id="linear-gradient-10" x1="2378.05" y1="1412.98" x2="2378.05" y2="406.37" xlink:href="#linear-gradient"/><filter id="luminosity-noclip-11" x="228.81" y="-8910.56" width="7.54" height="32766" filterUnits="userSpaceOnUse" color-interpolation-filters="sRGB"><feFlood flood-color="#fff" result="bg"/><feBlend in="SourceGraphic" in2="bg"/></filter><mask id="mask-11" x="228.81" y="-8910.56" width="7.54" height="32766" maskUnits="userSpaceOnUse"><g class="cls-143"/></mask><linearGradient id="linear-gradient-11" x1="232.58" y1="1486.01" x2="232.58" y2="123.66" xlink:href="#linear-gradient"/><filter id="luminosity-noclip-12" x="765.18" y="-8910.56" width="7.54" height="32766" filterUnits="userSpaceOnUse" color-interpolation-filters="sRGB"><feFlood flood-color="#fff" result="bg"/><feBlend in="SourceGraphic" in2="bg"/></filter><mask id="mask-12" x="765.18" y="-8910.56" width="7.54" height="32766" maskUnits="userSpaceOnUse"><g class="cls-142"/></mask><linearGradient id="linear-gradient-12" x1="768.95" y1="1010.86" x2="768.95" y2="-46.25" xlink:href="#linear-gradient"/><filter id="luminosity-noclip-13" x="1301.55" y="-8910.56" width="7.54" height="32766" filterUnits="userSpaceOnUse" color-interpolation-filters="sRGB"><feFlood flood-color="#fff" result="bg"/><feBlend in="SourceGraphic" in2="bg"/></filter><mask id="mask-13" x="1301.55" y="-8910.56" width="7.54" height="32766" maskUnits="userSpaceOnUse"><g class="cls-141"/></mask><linearGradient id="linear-gradient-13" x1="1305.32" y1="1010.86" x2="1305.32" y2="-46.25" xlink:href="#linear-gradient"/><filter id="luminosity-noclip-14" x="232.58" y="0" width="128.47" height="20.63" filterUnits="userSpaceOnUse" color-interpolation-filters="sRGB"><feFlood flood-color="#fff" result="bg"/><feBlend in="SourceGraphic" in2="bg"/></filter><mask id="mask-14" x="232.58" y="0" width="128.47" height="20.63" maskUnits="userSpaceOnUse"><g class="cls-1"><rect class="cls-2" x="232.58" width="128.47" height="20.63"/></g></mask><linearGradient id="linear-gradient-14" x1="296.82" y1="-189.24" x2="296.82" y2="223.67" gradientUnits="userSpaceOnUse"><stop offset="0" stop-color="#d5e4ff"/><stop offset="1" stop-color="#edfffe"/></linearGradient><filter id="luminosity-noclip-15" x="232.58" y="38.13" width="182.23" height="20.63" filterUnits="userSpaceOnUse" color-interpolation-filters="sRGB"><feFlood flood-color="#fff" result="bg"/><feBlend in="SourceGraphic" in2="bg"/></filter><mask id="mask-15" x="232.58" y="38.13" width="182.23" height="20.63" maskUnits="userSpaceOnUse"><g class="cls-13"><rect class="cls-14" x="232.58" y="38.13" width="182.23" height="20.63"/></g></mask><linearGradient id="linear-gradient-15" x1="323.7" y1="-189.24" x2="323.7" y2="223.67" xlink:href="#linear-gradient-14"/><filter id="luminosity-noclip-16" x="228.81" y="81.46" width="7.54" height="988.35" filterUnits="userSpaceOnUse" color-interpolation-filters="sRGB"><feFlood flood-color="#fff" result="bg"/><feBlend in="SourceGraphic" in2="bg"/></filter><mask id="mask-16" x="228.81" y="81.46" width="7.54" height="988.35" maskUnits="userSpaceOnUse"><g class="cls-21"><rect class="cls-22" x="228.81" y="81.46" width="7.54" height="988.35"/></g></mask><linearGradient id="linear-gradient-16" x1="232.58" y1="1486.01" x2="232.58" y2="123.66" gradientUnits="userSpaceOnUse"><stop offset="0" stop-color="#78c5f1"/><stop offset="1" stop-color="#edfffe"/></linearGradient><filter id="luminosity-noclip-17" x="765.18" y="81.46" width="7.54" height="988.35" filterUnits="userSpaceOnUse" color-interpolation-filters="sRGB"><feFlood flood-color="#fff" result="bg"/><feBlend in="SourceGraphic" in2="bg"/></filter><mask id="mask-17" x="765.18" y="81.46" width="7.54" height="988.35" maskUnits="userSpaceOnUse"><g class="cls-23"><rect class="cls-24" x="765.18" y="81.46" width="7.54" height="988.35"/></g></mask><linearGradient id="linear-gradient-17" x1="768.95" y1="1010.86" x2="768.95" y2="-46.25" xlink:href="#linear-gradient-16"/><filter id="luminosity-noclip-18" x="1301.55" y="81.46" width="7.54" height="988.35" filterUnits="userSpaceOnUse" color-interpolation-filters="sRGB"><feFlood flood-color="#fff" result="bg"/><feBlend in="SourceGraphic" in2="bg"/></filter><mask id="mask-18" x="1301.55" y="81.46" width="7.54" height="988.35" maskUnits="userSpaceOnUse"><g class="cls-25"><rect class="cls-26" x="1301.55" y="81.46" width="7.54" height="988.35"/></g></mask><linearGradient id="linear-gradient-18" x1="1305.32" y1="1010.86" x2="1305.32" y2="-46.25" xlink:href="#linear-gradient-16"/><filter id="luminosity-noclip-19" x="1837.91" y="81.46" width="7.54" height="988.35" filterUnits="userSpaceOnUse" color-interpolation-filters="sRGB"><feFlood flood-color="#fff" result="bg"/><feBlend in="SourceGraphic" in2="bg"/></filter><mask id="mask-19" x="1837.91" y="81.46" width="7.54" height="988.35" maskUnits="userSpaceOnUse"><g class="cls-3"><rect class="cls-4" x="1837.91" y="81.46" width="7.54" height="988.35"/></g></mask><linearGradient id="linear-gradient-19" x1="1841.68" y1="1010.86" x2="1841.68" y2="-46.25" xlink:href="#linear-gradient-16"/><filter id="luminosity-noclip-20" x="763.17" y="0" width="150.83" height="20.63" filterUnits="userSpaceOnUse" color-interpolation-filters="sRGB"><feFlood flood-color="#fff" result="bg"/><feBlend in="SourceGraphic" in2="bg"/></filter><mask id="mask-20" x="763.17" y="0" width="150.83" height="20.63" maskUnits="userSpaceOnUse"><g class="cls-5"><rect class="cls-6" x="763.17" width="150.83" height="20.63"/></g></mask><linearGradient id="linear-gradient-20" x1="838.58" y1="-189.24" x2="838.58" y2="223.67" xlink:href="#linear-gradient-14"/><filter id="luminosity-noclip-21" x="763.17" y="38.13" width="96.44" height="20.63" filterUnits="userSpaceOnUse" color-interpolation-filters="sRGB"><feFlood flood-color="#fff" result="bg"/><feBlend in="SourceGraphic" in2="bg"/></filter><mask id="mask-21" x="763.17" y="38.13" width="96.44" height="20.63" maskUnits="userSpaceOnUse"><g class="cls-7"><rect class="cls-8" x="763.17" y="38.13" width="96.44" height="20.63"/></g></mask><linearGradient id="linear-gradient-21" x1="811.39" y1="-189.24" x2="811.39" y2="223.67" xlink:href="#linear-gradient-14"/><filter id="luminosity-noclip-22" x="1309.09" y="0" width="93.47" height="20.63" filterUnits="userSpaceOnUse" color-interpolation-filters="sRGB"><feFlood flood-color="#fff" result="bg"/><feBlend in="SourceGraphic" in2="bg"/></filter><mask id="mask-22" x="1309.09" y="0" width="93.47" height="20.63" maskUnits="userSpaceOnUse"><g class="cls-9"><rect class="cls-10" x="1309.09" width="93.47" height="20.63"/></g></mask><linearGradient id="linear-gradient-22" x1="1355.82" y1="-189.24" x2="1355.82" y2="223.67" xlink:href="#linear-gradient-14"/><filter id="luminosity-noclip-23" x="1309.09" y="38.13" width="108.94" height="20.63" filterUnits="userSpaceOnUse" color-interpolation-filters="sRGB"><feFlood flood-color="#fff" result="bg"/><feBlend in="SourceGraphic" in2="bg"/></filter><mask id="mask-23" x="1309.09" y="38.13" width="108.94" height="20.63" maskUnits="userSpaceOnUse"><g class="cls-11"><rect class="cls-12" x="1309.09" y="38.13" width="108.94" height="20.63"/></g></mask><linearGradient id="linear-gradient-23" x1="1363.56" y1="-189.24" x2="1363.56" y2="223.67" xlink:href="#linear-gradient-14"/><filter id="luminosity-noclip-24" x="1845.46" y="0" width="136.14" height="20.63" filterUnits="userSpaceOnUse" color-interpolation-filters="sRGB"><feFlood flood-color="#fff" result="bg"/><feBlend in="SourceGraphic" in2="bg"/></filter><mask id="mask-24" x="1845.46" y="0" width="136.14" height="20.63" maskUnits="userSpaceOnUse"><g class="cls-15"><rect class="cls-16" x="1845.46" width="136.14" height="20.63"/></g></mask><linearGradient id="linear-gradient-24" x1="1913.53" y1="-189.24" x2="1913.53" y2="223.67" xlink:href="#linear-gradient-14"/><filter id="luminosity-noclip-25" x="1845.46" y="38.13" width="108.94" height="20.63" filterUnits="userSpaceOnUse" color-interpolation-filters="sRGB"><feFlood flood-color="#fff" result="bg"/><feBlend in="SourceGraphic" in2="bg"/></filter><mask id="mask-25" x="1845.46" y="38.13" width="108.94" height="20.63" maskUnits="userSpaceOnUse"><g class="cls-17"><rect class="cls-18" x="1845.46" y="38.13" width="108.94" height="20.63"/></g></mask><linearGradient id="linear-gradient-25" x1="1899.93" y1="-189.24" x2="1899.93" y2="223.67" xlink:href="#linear-gradient-14"/><filter id="luminosity-noclip-26" x="2374.28" y="81.46" width="7.54" height="988.35" filterUnits="userSpaceOnUse" color-interpolation-filters="sRGB"><feFlood flood-color="#fff" result="bg"/><feBlend in="SourceGraphic" in2="bg"/></filter><mask id="mask-26" x="2374.28" y="81.46" width="7.54" height="988.35" maskUnits="userSpaceOnUse"><g class="cls-19"><rect class="cls-20" x="2374.28" y="81.46" width="7.54" height="988.35"/></g></mask><linearGradient id="linear-gradient-26" x1="2378.05" y1="1412.98" x2="2378.05" y2="406.37" xlink:href="#linear-gradient-16"/><linearGradient id="linear-gradient-27" x1="232.58" y1="1115.77" x2="317.92" y2="1115.77" xlink:href="#linear-gradient-14"/><linearGradient id="linear-gradient-28" x1="768.95" y1="1107.03" x2="854.28" y2="1107.03" xlink:href="#linear-gradient-14"/><linearGradient id="linear-gradient-29" x1="1309.09" y1="1107.03" x2="1394.42" y2="1107.03" xlink:href="#linear-gradient-14"/><linearGradient id="linear-gradient-30" x1="1845.46" y1="1107.03" x2="1930.79" y2="1107.03" xlink:href="#linear-gradient-14"/><linearGradient id="linear-gradient-31" x1="2381.82" y1="1115.77" x2="2467.16" y2="1115.77" xlink:href="#linear-gradient-14"/><linearGradient id="linear-gradient-32" x1="2232.32" y1="577.64" x2="230.69" y2="577.64" xlink:href="#linear-gradient-14"/><linearGradient id="linear-gradient-33" x1="2933.85" y1="598.16" x2="-621.88" y2="636.04" xlink:href="#linear-gradient-14"/><linearGradient id="linear-gradient-34" x1="450.39" y1="634.42" x2="712.04" y2="634.42" gradientUnits="userSpaceOnUse"><stop offset="0" stop-color="#40d5e6"/><stop offset="1" stop-color="#57f"/></linearGradient><linearGradient id="linear-gradient-35" x1="448.06" y1="638.97" x2="736.68" y2="638.97" xlink:href="#linear-gradient-34"/><linearGradient id="linear-gradient-36" x1="515.42" y1="594.6" x2="535.49" y2="594.6" gradientTransform="translate(425.23 -192.55) rotate(34.21)" xlink:href="#linear-gradient-34"/><linearGradient id="linear-gradient-37" x1="523.07" y1="629.88" x2="557.78" y2="629.88" gradientTransform="translate(570.54 -199.52) rotate(42.71)" xlink:href="#linear-gradient-34"/><linearGradient id="linear-gradient-38" x1="586.96" y1="605.36" x2="592.57" y2="605.36" gradientTransform="translate(46.86 -42.36) rotate(4.28)" xlink:href="#linear-gradient-34"/><linearGradient id="linear-gradient-39" x1="439.92" y1="462.9" x2="703.9" y2="462.9" xlink:href="#linear-gradient-34"/><linearGradient id="linear-gradient-40" x1="439.26" y1="460.5" x2="768.93" y2="460.5" xlink:href="#linear-gradient-34"/><linearGradient id="linear-gradient-41" x1="510.48" y1="488.77" x2="579.29" y2="488.77" gradientTransform="translate(1009.43 -76.91) rotate(87.5)" xlink:href="#linear-gradient-34"/><linearGradient id="linear-gradient-42" x1="556.48" y1="405.12" x2="558.3" y2="405.12" gradientTransform="translate(0.47 -0.65) rotate(0.07)" xlink:href="#linear-gradient-34"/><linearGradient id="linear-gradient-43" x1="457.63" y1="391.68" x2="513.39" y2="391.68" gradientTransform="translate(851.3 -113.62) rotate(87.01)" xlink:href="#linear-gradient-34"/><linearGradient id="linear-gradient-44" x1="1764.19" y1="952.11" x2="1964.76" y2="952.11" xlink:href="#linear-gradient-34"/><linearGradient id="linear-gradient-45" x1="1911.33" y1="1064.03" x2="2092.71" y2="1064.03" xlink:href="#linear-gradient-34"/><linearGradient id="linear-gradient-46" x1="1926.83" y1="1090.41" x2="2062.97" y2="1090.41" xlink:href="#linear-gradient-34"/><linearGradient id="linear-gradient-47" x1="1877.67" y1="980.86" x2="2036.22" y2="980.86" xlink:href="#linear-gradient-34"/><linearGradient id="linear-gradient-48" x1="1841.28" y1="1208.27" x2="1987.59" y2="1208.27" gradientUnits="userSpaceOnUse"><stop offset="0" stop-color="#ff9340"/><stop offset="1" stop-color="#ffce45"/></linearGradient><linearGradient id="linear-gradient-49" x1="1841.28" y1="1208.27" x2="1987.59" y2="1208.27" gradientUnits="userSpaceOnUse"><stop offset="0" stop-color="#c97332"/><stop offset="1" stop-color="#ffce45"/></linearGradient><linearGradient id="linear-gradient-50" x1="657.41" y1="265.91" x2="1673.35" y2="265.91" gradientTransform="translate(2330.75 531.81) rotate(-180)" gradientUnits="userSpaceOnUse"><stop offset="0" stop-color="#ff9f55"/><stop offset="1" stop-color="#ffd255"/></linearGradient><linearGradient id="linear-gradient-51" x1="1171.6" y1="405.92" x2="1162.8" y2="203.64" xlink:href="#linear-gradient-48"/><linearGradient id="linear-gradient-52" x1="1237.75" y1="403.04" x2="1228.96" y2="200.77" xlink:href="#linear-gradient-48"/><linearGradient id="linear-gradient-53" x1="1123.01" y1="391.37" x2="1117.59" y2="299.37" xlink:href="#linear-gradient-48"/><linearGradient id="linear-gradient-54" x1="871.23" y1="364.9" x2="733.22" y2="644.98" xlink:href="#linear-gradient-34"/><linearGradient id="linear-gradient-55" x1="845.24" y1="687.55" x2="845.24" y2="871.24" xlink:href="#linear-gradient-34"/><linearGradient id="linear-gradient-56" x1="845.09" y1="687.55" x2="845.09" y2="871.24" xlink:href="#linear-gradient-34"/><linearGradient id="linear-gradient-57" x1="845.09" y1="699.43" x2="845.09" y2="860.29" gradientUnits="userSpaceOnUse"><stop offset="0" stop-color="#d3dae0"/><stop offset="1" stop-color="#fff"/></linearGradient><linearGradient id="linear-gradient-58" x1="1067.86" y1="687.55" x2="1067.86" y2="871.24" xlink:href="#linear-gradient-34"/><linearGradient id="linear-gradient-59" x1="1067.71" y1="687.55" x2="1067.71" y2="871.24" xlink:href="#linear-gradient-34"/><linearGradient id="linear-gradient-60" x1="1067.71" y1="699.43" x2="1067.71" y2="860.29" xlink:href="#linear-gradient-57"/><linearGradient id="linear-gradient-61" x1="1290.48" y1="687.55" x2="1290.48" y2="871.24" xlink:href="#linear-gradient-34"/><linearGradient id="linear-gradient-62" x1="1290.33" y1="687.55" x2="1290.33" y2="871.24" xlink:href="#linear-gradient-34"/><linearGradient id="linear-gradient-63" x1="1290.33" y1="699.43" x2="1290.33" y2="860.29" xlink:href="#linear-gradient-57"/><linearGradient id="linear-gradient-64" x1="1513.09" y1="687.55" x2="1513.09" y2="871.24" xlink:href="#linear-gradient-34"/><linearGradient id="linear-gradient-65" x1="1512.94" y1="687.55" x2="1512.94" y2="871.24" xlink:href="#linear-gradient-34"/><linearGradient id="linear-gradient-66" x1="1512.94" y1="699.43" x2="1512.94" y2="860.29" xlink:href="#linear-gradient-57"/><linearGradient id="linear-gradient-67" x1="1540.93" y1="1020.76" x2="1742.11" y2="1020.76" gradientTransform="translate(3119.53 2266.55) rotate(-171.75)" xlink:href="#linear-gradient-34"/><linearGradient id="linear-gradient-68" x1="1457.53" y1="463.84" x2="1772.94" y2="463.84" gradientTransform="matrix(1, 0, 0, -1, 290.62, 927.69)" gradientUnits="userSpaceOnUse"><stop offset="0" stop-color="#f9cb8e"/><stop offset="1" stop-color="#ffc7b8"/></linearGradient><linearGradient id="linear-gradient-69" x1="571.86" y1="1021.74" x2="742.96" y2="1021.74" gradientTransform="matrix(1, 0, 0, 1, 0, 0)" xlink:href="#linear-gradient-68"/><linearGradient id="linear-gradient-70" x1="0" y1="305.35" x2="105.01" y2="305.35" gradientTransform="matrix(1, 0, 0, 1, 0, 0)" xlink:href="#linear-gradient-68"/></defs><title>faq</title><g id="Calque_2" data-name="Calque 2"><g id="_Layer_" data-name="&lt;Layer&gt;"><g class="cls-27"><rect class="cls-28" x="232.58" width="128.47" height="20.63"/></g><g class="cls-29"><rect class="cls-30" x="232.58" y="38.13" width="182.23" height="20.63"/></g><g class="cls-31"><rect class="cls-32" x="228.81" y="81.46" width="7.54" height="988.35"/></g><g class="cls-33"><rect class="cls-34" x="765.18" y="81.46" width="7.54" height="988.35"/></g><g class="cls-35"><rect class="cls-36" x="1301.55" y="81.46" width="7.54" height="988.35"/></g><g class="cls-37"><rect class="cls-38" x="1837.91" y="81.46" width="7.54" height="988.35"/></g><g class="cls-39"><rect class="cls-40" x="763.17" width="150.83" height="20.63"/></g><g class="cls-41"><rect class="cls-42" x="763.17" y="38.13" width="96.44" height="20.63"/></g><g class="cls-43"><rect class="cls-44" x="1309.09" width="93.47" height="20.63"/></g><g class="cls-45"><rect class="cls-46" x="1309.09" y="38.13" width="108.94" height="20.63"/></g><g class="cls-47"><rect class="cls-48" x="1845.46" width="136.14" height="20.63"/></g><g class="cls-49"><rect class="cls-50" x="1845.46" y="38.13" width="108.94" height="20.63"/></g><g class="cls-51"><rect class="cls-52" x="2374.28" y="81.46" width="7.54" height="988.35"/></g><rect class="cls-53" x="232.58" y="1102.01" width="85.34" height="27.51"/><rect class="cls-54" x="768.95" y="1093.28" width="85.34" height="27.51"/><rect class="cls-55" x="1309.09" y="1093.28" width="85.34" height="27.51"/><rect class="cls-56" x="1845.46" y="1093.28" width="85.34" height="27.51"/><rect class="cls-57" x="2381.82" y="1102.01" width="85.34" height="27.51"/><g class="cls-58"><path class="cls-59" d="M1188,802.28c-123.49,0-221.43-83-317.31-164.34C798,576.3,722.54,513.28,635.47,482.19c-265.73-94.87-401.67,78.37-402.89,79.89v-52.7c1.44-1.8,25.69-33.29,95.84-63.36,63.87-27.37,171-49.21,318.85,2.21,93.65,32.57,171.43,98.51,246.64,162.28,152.58,129.36,284.35,241.08,513.19,66.09,173.32-132.54,336.71-258.84,497.47-305,157.24-45.13,321.16-12.09,474.61,141.35l-1.13,47.86c-325.95-327.38-603.48-120-949.11,144.33C1337.4,775.17,1258.51,802.27,1188,802.28Z"/></g><path class="cls-60" d="M2192.18,787c-167.3,0-312.72-72.32-464.33-147.71-187.17-93.08-380.71-189.32-638.58-163-164.66,16.83-268,83.89-359.21,143.05C647.49,673,569.43,720.08,463.71,724.1c-170.86,6.5-230.13-66.37-231.12-70.82V606.52h0c.21.81,37.52,82.6,230.94,81.63,95.26-.48,165.56-46.09,247-98.91,94.6-61.38,201.82-130.95,375.12-148.66,268.21-27.41,466.49,71.19,658.24,166.54,200.64,99.77,392.11,193.34,634.2,112.16v38.45C2309,780.87,2253.85,787,2192.18,787Z"/><path class="cls-61" d="M712,667.71c-.16,0-16.66.15-39.68-4.2-21.25-4-52.57-12.79-81.17-31.8-28.32-18.83-65-25.42-90.85-27.63a301.78,301.78,0,0,0-49.76-.29l-.18-1.78a303.85,303.85,0,0,1,50.1.29c26,2.23,63.06,8.88,91.69,27.92,28.33,18.84,59.4,27.54,80.47,31.52,22.85,4.32,39.21,4.18,39.37,4.17Z"/><path class="cls-62" d="M732.56,678.27c-18.87,21.32-99,34.49-146.62,9.62-26.29-13.74-47.15-29.8-65.55-44-24-18.47-44.69-34.42-70.1-40.15l-2.22-.5,2-1.14c.37-.21,37.6-21.52,90.74-25.08A218.88,218.88,0,0,1,631.5,590c36.22,13.32,70.12,36.59,100.76,69.15l-.65.61.65-.61c5.4,5.74,5.86,11.92,1.35,17.87Q733.12,677.64,732.56,678.27ZM453,602.57c24.75,6.23,45.08,21.89,68.52,39.94,18.34,14.13,39.13,30.14,65.29,43.8,21.49,11.23,52.37,15.64,84.71,12.12,27.38-3,51-11.48,59.75-21.35q.51-.58,1-1.16c4-5.24,3.56-10.48-1.22-15.57-68.91-73.24-141.35-84.75-190-81.52C495.23,581.88,461.39,598.16,453,602.57Z"/><rect class="cls-63" x="524.56" y="578.07" width="1.79" height="33.06" transform="translate(-243.39 398.32) rotate(-34.21)"/><rect class="cls-64" x="517.64" y="628.98" width="45.57" height="1.79" transform="translate(-283.91 533.59) rotate(-42.71)"/><rect class="cls-65" x="588.87" y="579.69" width="1.79" height="51.34" transform="translate(-43.56 45.74) rotate(-4.28)"/><path class="cls-66" d="M703.33,594c-.21-.08-21.72-7.74-49.11-26.54-25.27-17.35-60.88-48-87-95.54-30.33-55.11-63.32-89.86-85.65-109.3-24.19-21.07-41.44-29.22-41.61-29.29l.72-1.56c.17.08,17.59,8.29,41.95,29.5,22.46,19.54,55.62,54.46,86.09,109.83,26,47.24,61.4,77.71,86.51,95,27.2,18.67,48.49,26.26,48.71,26.34Z"/><path class="cls-67" d="M768.93,589.7l-4.85.89c-.16,0-16,2.88-40.5,2.45a292.49,292.49,0,0,1-94.47-17.43,264.61,264.61,0,0,1-108.19-74.44c-37.42-42.48-64.83-99.14-81.47-168.4l-.19-.78.77-.24c.28-.09,28.37-8.67,65.08.16,21.55,5.18,41.83,15.25,60.27,29.93,23,18.32,43.23,43.92,60.06,76.08,37.91,72.46,73.66,109.68,97,128.14,25.16,19.93,41.5,22.82,41.66,22.85ZM441.31,333.16C478.91,488.7,564.44,550,629.63,574a290.77,290.77,0,0,0,93.91,17.35,250.15,250.15,0,0,0,36.11-1.8c-6.43-2-20-7.61-38.3-22.11-23.44-18.57-59.38-56-97.43-128.69-37.83-72.3-85.71-97.08-119.21-105.13C471.82,325.67,446,331.88,441.31,333.16Z"/><rect class="cls-68" x="544.02" y="454.37" width="1.72" height="68.8" transform="translate(32.82 1011.82) rotate(-87.5)"/><rect class="cls-69" x="556.53" y="356.85" width="1.72" height="96.54" transform="translate(-0.47 0.65) rotate(-0.07)"/><rect class="cls-70" x="484.65" y="363.81" width="1.72" height="55.74" transform="translate(69 856.08) rotate(-87.01)"/><rect class="cls-71" x="1101.55" y="894.9" width="127.65" height="387.72" transform="translate(2330.75 2177.52) rotate(180)"/><path class="cls-72" d="M673.07,304.07h984.61a58.84,58.84,0,0,1,58.84,58.84v659.93a58.84,58.84,0,0,1-58.84,58.84H673.07a58.83,58.83,0,0,1-58.83-58.83V362.9A58.83,58.83,0,0,1,673.07,304.07Z" transform="translate(2330.75 1385.74) rotate(180)"/><rect class="cls-73" x="878.23" y="1267.99" width="574.29" height="29.27"/><path class="cls-74" d="M1781.71,687.07c17.3-8.27,34.51,46.79,34.51,46.79,29.4,38.84,70.48-12.83,66.46,45.24-7,101.61,117,32,59.76,138s50.5,60,15,145.52,10.53,187.55-43,145.63c0,0-47.09-103.27-95.66-135.22s29.1-69.86,13.9-113.26c-22.07-63-75.25-60.56-36.91-128.3S1722.92,715.19,1781.71,687.07Z"/><path class="cls-75" d="M1931.37,1169.41c-23.18-16.3-50.32-129.92-51.93-197.6-.83-34.66-11.08-49.11-20.12-61.85-8.64-12.18-16.11-22.7-11.76-46.85,8.31-46.16-13.54-66.08-13.76-66.28l2.53-2.88c1,.85,23.72,21.4,15,69.84-4.06,22.57,2.63,32,11.11,44,8.9,12.54,20,28.14,20.82,64,1.74,72.63,29.48,179.91,50.31,194.56Z"/><path class="cls-76" d="M1940,1177.83a49.57,49.57,0,0,1-9.8-1.06c-8.94-1.81-14.79-6.52-17.41-14-6.25-17.87,8.23-46.91,20-60.9.2-.23,19.87-24.27,17.77-57.6-.35-5.59-.93-10.75-1.44-15.32-1.48-13.19-2.55-22.71,3.12-29.08,5-5.61,14.63-8,32.22-8.12,30.85-.14,43.05-12.92,52.86-23.18,4.16-4.36,8.1-8.48,12.87-11.09h0c15.38-8.39,31.66-9.63,38.73-2.93,3.35,3.18,6.19,9.41.63,21-5.08,10.62-11.66,17.34-17,22.74-7.12,7.27-11.83,12.07-9.38,21.63.58,2.25,1.24,4.51,1.9,6.79,4.76,16.27,10.15,34.71-17.7,47.22-5.91,2.66-11.29,4.77-16,6.63-19.44,7.63-31.17,12.23-44.41,40.19-2.56,5.41-4.83,10.54-7,15.5C1969.53,1159.93,1961.63,1177.83,1940,1177.83Zm112-217c-4.25,2.32-7.81,6-11.94,10.37-10.3,10.79-23.13,24.22-55.61,24.37-16.18.08-25.24,2.18-29.37,6.83-4.53,5.09-3.54,13.9-2.17,26.1.52,4.6,1.1,9.82,1.46,15.5,2.2,34.9-17.8,59.28-18.65,60.3-11.63,13.85-24.81,41.42-19.3,57.18,2.14,6.12,7,10,14.55,11.52,26.22,5.3,33.46-11.11,45.45-38.29,2.2-5,4.47-10.14,7.06-15.6,13.9-29.33,26.86-34.42,46.48-42.11,4.71-1.85,10-3.94,15.87-6.56,24.8-11.14,20.32-26.45,15.59-42.65-.68-2.32-1.35-4.63-1.94-6.92-3-11.66,2.9-17.67,10.35-25.27,5.36-5.47,11.43-11.67,16.24-21.71,2.52-5.26,4.59-12.41.19-16.59-5.79-5.49-20.52-4-34.25,3.52Z"/><path class="cls-77" d="M1930.66,1200l-3.83-.2c.19-3.6,5-88.39,39.06-113.21,37.35-27.22,49.13-56.48,54.73-76.12,6.61-23.14,40.25-29.33,41.68-29.58l.66,3.78c-.33.06-32.71,6-38.65,26.85-5.76,20.18-17.86,50.25-56.16,78.17C1935.57,1113.41,1930.7,1199.1,1930.66,1200Z"/><path class="cls-78" d="M2008.5,772.64c-24.2-8.3-19.17,38.34-29.4,72.85S1865.36,860.54,1908.81,947s-55,28.9-25.56,104.3,2.56,156.06,34.51,135.54,18-115.47,51.18-126.75,38.65-24.44,5.75-55.12,86.21-61.13,56.82-123.06S2036.46,782.23,2008.5,772.64Z"/><path class="cls-75" d="M1932.58,1183.19c-3-12.91-29-126.51-4.78-140.24,21.37-12.1,20.85-59.18,17.51-103.63-3-39.35,47.59-57.74,49.74-58.51l1.28,3.61c-.5.18-49.93,18.18-47.2,54.6,3.42,45.65,3.79,94.09-19.45,107.25-18.41,10.43-1.46,101.73,6.63,136Z"/><polygon class="cls-79" points="1987.59 1142.74 1953.04 1273.81 1875.83 1273.81 1841.28 1142.74 1987.59 1142.74"/><path class="cls-80" d="M1987.59,1142.74s-76.06,14.28-76.06,131.07h-35.7l-34.55-131.07Z"/><rect class="cls-75" x="657.41" y="221.31" width="1015.94" height="738.5" transform="translate(2330.75 1181.12) rotate(180)"/><rect class="cls-81" x="657.41" y="221.31" width="1015.94" height="89.2" transform="translate(2330.75 531.81) rotate(180)"/><path class="cls-82" d="M827.89,282.76H716.69a16.85,16.85,0,0,1-16.85-16.85h0a16.85,16.85,0,0,1,16.85-16.85h111.2a16.85,16.85,0,0,1,16.85,16.85h0A16.85,16.85,0,0,1,827.89,282.76Z"/><rect class="cls-75" x="657.41" y="221.31" width="1015.94" height="738.5"/><rect class="cls-83" x="657.41" y="221.31" width="1015.94" height="82.99"/><path class="cls-84" d="M791.26,257.89h882.08a0,0,0,0,1,0,0v54.63a0,0,0,0,1,0,0H806.67a15.41,15.41,0,0,1-15.41-15.41V257.89A0,0,0,0,1,791.26,257.89Z"/><path class="cls-75" d="M1359.34,300.25H825.87a16.72,16.72,0,0,1-16.72-16.72h0a16.72,16.72,0,0,1,16.72-16.72h533.47a16.72,16.72,0,0,1,16.72,16.72h0A16.72,16.72,0,0,1,1359.34,300.25Z"/><path class="cls-75" d="M1639,300.25h-217a16.72,16.72,0,0,1-16.72-16.72h0a16.72,16.72,0,0,1,16.72-16.72h217a16.72,16.72,0,0,1,16.72,16.72h0A16.72,16.72,0,0,1,1639,300.25Z"/><polygon class="cls-85" points="718.68 290.15 716.39 287.86 726.18 278.06 715.83 267.71 718.12 265.42 730.76 278.06 718.68 290.15"/><polygon class="cls-85" points="691.16 290.15 678.52 277.5 690.6 265.42 692.89 267.71 683.1 277.5 693.45 287.86 691.16 290.15"/><path class="cls-85" d="M778.55,282l-5.17-8.33-7,7.14,1.87,1.83,3.17-3.25a12.33,12.33,0,1,1-12.19-14V262.8a15,15,0,1,0,14.78,16.9l2.27,3.66Z"/><path class="cls-85" d="M1594.29,229.08h79.06a0,0,0,0,1,0,0v30.07a0,0,0,0,1,0,0h-79.06A12.32,12.32,0,0,1,1582,246.83v-5.43A12.32,12.32,0,0,1,1594.29,229.08Z"/><circle class="cls-86" cx="1607.26" cy="244.11" r="8.04"/><circle class="cls-86" cx="1627.49" cy="244.11" r="8.04"/><circle class="cls-87" cx="1647.72" cy="244.11" r="8.04"/><path class="cls-88" d="M657.41,221.31h911.71a0,0,0,0,1,0,0v8.16a22.69,22.69,0,0,1-22.69,22.69H680.09a22.69,22.69,0,0,1-22.69-22.69v-8.16A0,0,0,0,1,657.41,221.31Z"/><rect class="cls-89" x="1019.58" y="389.19" width="337.13" height="24.64"/><rect class="cls-89" x="1019.58" y="433.57" width="605.68" height="24.64"/><rect class="cls-90" x="984.6" y="389.19" width="18.01" height="69.02"/><rect class="cls-89" x="1019.58" y="539.61" width="430.98" height="24.64"/><rect class="cls-89" x="1019.58" y="583.99" width="526.27" height="24.64"/><rect class="cls-90" x="984.6" y="539.61" width="18.01" height="69.02"/><polygon class="cls-91" points="938.81 498.91 730.76 378.8 730.76 619.03 938.81 498.91"/><rect class="cls-92" x="811.86" y="859.71" width="66.46" height="8.19"/><rect class="cls-92" x="795.73" y="845.13" width="98.71" height="8.19"/><circle class="cls-93" cx="845.24" cy="732.73" r="17.16"/><path class="cls-94" d="M876.2,788.67v32.64a75.49,75.49,0,0,1-62.21,0V788.67a31.11,31.11,0,0,1,62.21,0Z"/><path class="cls-95" d="M845.09,830.06a76.65,76.65,0,0,1-32-6.89,77.31,77.31,0,1,1,63.9,0A76.63,76.63,0,0,1,845.09,830.06Zm0-150.54a73.23,73.23,0,1,0,0,146.46,72.58,72.58,0,0,0,30.26-6.53,73.24,73.24,0,0,0-30.26-139.93Z"/><rect class="cls-92" x="1034.48" y="859.71" width="66.46" height="8.19"/><rect class="cls-92" x="1018.35" y="845.13" width="98.71" height="8.19"/><circle class="cls-96" cx="1067.86" cy="732.73" r="17.16"/><path class="cls-97" d="M1098.82,788.67v32.64a75.49,75.49,0,0,1-62.21,0V788.67a31.11,31.11,0,0,1,62.21,0Z"/><path class="cls-98" d="M1067.71,830.06a76.65,76.65,0,0,1-32-6.89,77.31,77.31,0,1,1,63.9,0A76.64,76.64,0,0,1,1067.71,830.06Zm0-150.54a73.24,73.24,0,1,0,73.23,73.23A73.31,73.31,0,0,0,1067.71,679.52Z"/><rect class="cls-92" x="1257.09" y="859.71" width="66.46" height="8.19"/><rect class="cls-92" x="1240.97" y="845.13" width="98.71" height="8.19"/><circle class="cls-99" cx="1290.48" cy="732.73" r="17.16"/><path class="cls-100" d="M1321.43,788.67v32.64a75.49,75.49,0,0,1-62.21,0V788.67a31.11,31.11,0,0,1,62.21,0Z"/><path class="cls-101" d="M1290.33,830.06a76.64,76.64,0,0,1-32-6.89,77.31,77.31,0,1,1,63.9,0A76.64,76.64,0,0,1,1290.33,830.06Zm0-150.54a73.24,73.24,0,0,0-30.26,139.93,73.43,73.43,0,0,0,60.52,0,73.24,73.24,0,0,0-30.26-139.93Z"/><rect class="cls-92" x="1479.71" y="859.71" width="66.46" height="8.19"/><rect class="cls-92" x="1463.59" y="845.13" width="98.71" height="8.19"/><circle class="cls-102" cx="1513.09" cy="732.73" r="17.16"/><path class="cls-103" d="M1544.05,788.67v32.64a75.49,75.49,0,0,1-62.21,0V788.67a31.11,31.11,0,0,1,62.21,0Z"/><path class="cls-104" d="M1512.94,830.06a76.64,76.64,0,0,1-32-6.89,77.31,77.31,0,1,1,63.9,0A76.63,76.63,0,0,1,1512.94,830.06Zm0-150.54a73.24,73.24,0,0,0-30.26,139.93,73.43,73.43,0,0,0,60.52,0,73.24,73.24,0,0,0-30.26-139.93Z"/><rect class="cls-105" x="842.03" y="894.39" width="6.11" height="25.71"/><rect class="cls-105" x="842.03" y="894.39" width="6.11" height="25.71" transform="translate(1752.34 62.16) rotate(90)"/><rect class="cls-105" x="1064.8" y="894.39" width="6.11" height="25.71"/><rect class="cls-105" x="1064.8" y="894.39" width="6.11" height="25.71" transform="translate(1975.11 -160.61) rotate(90)"/><rect class="cls-105" x="1287.57" y="894.39" width="6.11" height="25.71"/><rect class="cls-105" x="1287.57" y="894.39" width="6.11" height="25.71" transform="translate(2197.88 -383.38) rotate(90)"/><rect class="cls-105" x="1510.34" y="894.39" width="6.11" height="25.71"/><rect class="cls-105" x="1510.34" y="894.39" width="6.11" height="25.71" transform="translate(2420.64 -606.15) rotate(90)"/><path class="cls-106" d="M1354.9,781.36s-9.73,3.7-17.21,4.44-18.32,8.55-21.09,11.95-25.39,27.7-25.79,30.8,5.79,2.07,7.86-.39,21.82-22,21.82-22-22.15,24.66-22,27.55,3.48,5.36,7.56,2.81c0,0,3.26,6.69,9,.9l11.53-11.51s-4.88,7,1.52,5c3.41-1.07,14.82-15.59,18-17.74s15.41-20.75,15.41-20.75Z"/><path class="cls-107" d="M1433.62,1259.08s-8.42,16.85-13.53,20.17-33.7,31.15-39.57,33.7-24.76,6.13-24.51,15.06,48.76,6.13,58.21,2.81,25.28-24.76,31.66-24.51,4.09,26.29,4.09,26.29h6.89s8.68-27.57,8.43-37.27-5.62-36.25-5.62-36.25Z"/><path class="cls-107" d="M1551.86,1248.61s-3.71,16.68-9.8,22.51-28.93,30.45-34.72,33.1-16.91,4.5-20.35,8.74-1.39,16.68,20.35,15.36,28.83-1.13,34-5.5,21.84-19.46,26.81-19.86v24h6s10.53-31.58,6.75-44.88-3.57-31.38-3.57-31.38Z"/><path class="cls-106" d="M1543.23,534.13s9.92,25.53,2.2,45.27c0,0,36.36-2.3,37.74-6.43s-1.46-42.39,3.54-53.7S1543.23,534.13,1543.23,534.13Z"/><path class="cls-106" d="M1609.07,876.54s-2.11,5.58-1.79,9.68c.25,3.25-1.56,8.58-2.25,11.46s-2.31,15.59-1.91,18.71c.16,1.28,4.3,8.67,4.35,11.31s-.52,8,1.78,7.87,4.15-4.85,4.15-4.85.19,2.4,2.25,2.89c4,.95,5.69-1,5.69-1s1.81,2.29,3.58,2.27c3.91,0,5.49-2,5.49-2a6.65,6.65,0,0,0,4.51.48,6.06,6.06,0,0,0,4.23-4s4.38,0,5.26-2.32.3-4.38.5-6.31-3-18.33-10.52-29-3.74-24.1-3.74-24.1Z"/><path class="cls-108" d="M1597.65,966.19l-4.51-31.08a9.18,9.18,0,0,1,7.76-10.4l49.29-7.15a9.18,9.18,0,0,1,10.39,7.76l4.51,31.08a9.18,9.18,0,0,1-7.76,10.39L1608,974A9.18,9.18,0,0,1,1597.65,966.19Zm4.14-35.39a3,3,0,0,0-2.55,3.42l4.51,31.08a3,3,0,0,0,3.42,2.55l49.29-7.15a3,3,0,0,0,2.55-3.42l-4.51-31.08a3,3,0,0,0-3.42-2.55Z"/><rect class="cls-109" x="1549.58" y="953.82" width="183.87" height="133.88" transform="translate(3412.54 1795.35) rotate(171.75)"/><path class="cls-110" d="M1612.54,929.31s-2.91-14.7.37-18.67,4.62,1.27,4.62,1.27-1.42-5.16,2.62-6.77,5.29,4.62,5.29,4.62a4.33,4.33,0,0,1,4.51-4.32c4.52-.11,4.36,5.31,4.36,5.31s3.31-6,6.86-1.69c6,7.26,3.63,18,3.63,18s-1,2.92-5.32,2.72c0,0-1.87,6.37-8.8,3.6,0,0-6,5-9.31-.22C1621.36,933.15,1614.41,937.94,1612.54,929.31Z"/><path class="cls-111" d="M1539.72,570.77s-21.48,7.44-31.19,9.5-30,11.43-28.37,46.69,7.71,65.83,9.92,81,.83,53.71-2.75,72.44c0,0,51.51,12.67,112.1,0,0,0-10.74-32-10.47-40.21s35.81-76.3,37.46-87,8.81-58.12-7.44-68.58-29.47-9.09-36.36-13.77S1549.77,567.41,1539.72,570.77Z"/><path class="cls-111" d="M1512.13,579.4s-23.71-.65-40.51,36.53-20.93,58.94-24.79,64.18-17.35,25.62-30.57,35.53S1348,781.42,1348,781.42l15.11,19.34s79.33-56.19,87.59-65.83,58.44-82.63,61.45-93.65S1538.32,590.79,1512.13,579.4Z"/><path class="cls-111" d="M1654.37,764.12c.15,14.87-15.3,116.37-15.3,116.37l-29.18,1.24s9.36-100.67,12.67-123.81c1-6.83.15-17.43-1.5-29h0c-1-7.35-2.42-15.07-3.88-22.46-4-20.39-8.67-38.19-8.67-38.19s-26.3-86.65,14.11-80.3c0,0,14,16.68,18.53,42.7s9.09,64.87,8.26,80.15S1654.26,753.18,1654.37,764.12Z"/><path class="cls-112" d="M1487.32,780.37s-9.37,22.14-10.19,27.73-30.18,78.68-32.23,100.07c-2.07,21.62-8.26,79.33-10.47,87.59s5,45.17,6.06,53.43.55,143.23-9.37,209.88c0,0,23.14,9.91,40.76,0,0,0,29.2-104.11,27.54-164.16s-9.27-85.39,0-109.62,63.85-97,69.36-104.67,40-50.33,7.34-96.5S1487.32,780.37,1487.32,780.37Z"/><path class="cls-112" d="M1600.1,977.58c-2.9,19.29.15,44.62,6.21,115.14s-10.6,155.89-10.6,155.89c-20.93,7.16-45,0-45,0,.55-5,0-171.87,0-186.74s-4.27-31.75-5.37-48.83c-.75-11.63-6.16-33.09-12.25-55-1.83-6.56-3.71-13.16-5.54-19.54h0c-1-3.58-2-7.1-3-10.5-8.58-29.75-20.11-144.61-20.11-144.61s63.93-51.5,95.06-3,15.15,83.73,14,89.79S1603,958.3,1600.1,977.58Z"/><path class="cls-111" d="M1482.32,690.19s4.3,86.74-16.35,136.73c0,0,68.17,22.72,156.17,0,0,0-18.86-62.18-17.35-71.68s34.44-119.12,24.31-144.91S1492.48,608.82,1482.32,690.19Z"/><path class="cls-106" d="M1563.61,433.6c-15.35-1.74-55.09,1.38-52.06,61.15s24.79,56.19,46.55,49.85,47.65-52.61,47.65-65S1607.41,438.56,1563.61,433.6Z"/><path class="cls-113" d="M1513.76,467.38s17.29,22,34.67,27.33c0,0,13.38,23.93,36.73,30,0,0,49.79-47.61,7.92-83.42S1513.48,449.1,1513.76,467.38Z"/><path class="cls-106" d="M1545.16,486.48c.58-3.27,7.83-9.92,13.42-2.48s-4.6,24.79-8.46,24.79S1543,498.88,1545.16,486.48Z"/><path class="cls-113" d="M1600.1,452.08c1.25-1.89,39-18.9,46.83,16.64s-30.39,76.85-37.09,94.61,0,59.91,0,59.91-20-21.67-26.95-43.84C1575.25,555.07,1572.68,493.7,1600.1,452.08Z"/><path class="cls-107" d="M1573.59,874c-.5,1.1-32.35,71.81-40.55,84.07-1.83-6.56-3.71-13.16-5.54-19.54h0S1572.52,875.54,1573.59,874Z"/><path class="cls-114" d="M1627.72,656.74s-1,45-6.66,72.19c-1-7.35-2.42-15.07-3.88-22.46C1617.41,705.45,1626.62,663.77,1627.72,656.74Z"/><rect class="cls-115" x="1748.15" y="291.56" width="315.41" height="344.56" rx="47.97" ry="47.97" transform="translate(3811.71 927.69) rotate(180)"/><rect class="cls-75" x="1944.78" y="325.09" width="81.12" height="9.25" transform="translate(3970.67 659.42) rotate(180)"/><rect class="cls-75" x="1966.34" y="345.41" width="59.56" height="9.25" transform="translate(3992.24 700.06) rotate(180)"/><rect class="cls-75" x="1879.46" y="365.73" width="146.44" height="9.25" transform="translate(3905.36 740.7) rotate(180)"/><rect class="cls-75" x="1785.35" y="424.17" width="100.48" height="9.25"/><rect class="cls-75" x="1785.35" y="444.49" width="136.05" height="9.25"/><rect class="cls-75" x="1785.35" y="464.81" width="181.38" height="9.25"/><rect class="cls-75" x="1785.35" y="523.3" width="110.65" height="9.25"/><rect class="cls-75" x="1785.35" y="543.62" width="153.09" height="9.25"/><rect class="cls-75" x="1785.35" y="563.94" width="147.02" height="9.25"/><path class="cls-116" d="M602.27,1068.16a126,126,0,0,1,1.22-17.84,63.22,63.22,0,0,1,4.66-16.42,51.66,51.66,0,0,1,9.93-14.8,66.29,66.29,0,0,1,17-12.57l14-7.5a143.15,143.15,0,0,0,17-10.75,70.81,70.81,0,0,0,14.39-14,28.22,28.22,0,0,0,6.08-17.64q0-13.38-9.73-20.88a35.56,35.56,0,0,0-22.3-7.5,32.63,32.63,0,0,0-14.39,3,54.15,54.15,0,0,0-11.35,7.3,48.33,48.33,0,0,0-8.72,9.53q-3.65,5.27-6.49,9.33l-41.76-29.19a80.85,80.85,0,0,1,33.45-38.52Q628.21,876,657,876a110.44,110.44,0,0,1,30.81,4.46,78.74,78.74,0,0,1,27.57,14.19,74,74,0,0,1,19.87,25.14q7.7,15.41,7.7,37.3,0,23.11-9.53,38.72t-28.18,27.37A172.6,172.6,0,0,1,688,1033.29a161.62,161.62,0,0,0-16,9.33,46,46,0,0,0-11.76,10.95,24,24,0,0,0-4.46,14.6Zm1.22,99.34v-60.82H656.6v60.82Z"/><path class="cls-117" d="M18.66,333.85a77.35,77.35,0,0,1,.75-10.95,38.79,38.79,0,0,1,2.86-10.08,31.71,31.71,0,0,1,6.1-9.08A40.68,40.68,0,0,1,38.82,296l8.58-4.6a88,88,0,0,0,10.45-6.59,43.5,43.5,0,0,0,8.83-8.59,17.32,17.32,0,0,0,3.73-10.83q0-8.21-6-12.82A21.83,21.83,0,0,0,50.76,248a20,20,0,0,0-8.83,1.87,33.27,33.27,0,0,0-7,4.48,29.66,29.66,0,0,0-5.35,5.85q-2.24,3.24-4,5.72L0,248a49.62,49.62,0,0,1,20.53-23.64,60.33,60.33,0,0,1,31.73-8.46,67.81,67.81,0,0,1,18.91,2.74,48.36,48.36,0,0,1,16.92,8.71,45.41,45.41,0,0,1,12.19,15.43q4.72,9.46,4.73,22.89,0,14.18-5.85,23.76t-17.3,16.8a105.61,105.61,0,0,1-10.58,6.22,99.6,99.6,0,0,0-9.83,5.72,28.2,28.2,0,0,0-7.22,6.72,14.72,14.72,0,0,0-2.74,9Zm.75,61V357.49H52v37.33Z"/><path class="cls-118" d="M531.25,522.33s4.46,80.93-10.39,92.78c-6.86,5.48-23,7.21-40.53,7.23-5.76,0-11.66-.17-17.41-.46h0c-23-1.15-43.6-4.07-43.6-4.07s-59.57,3-56.65-33.94c0,0,6.94-11.18,15.83-13.74,8.21-2.36,45.73,4.12,52.24,4.4,7.17.31,58,11.61,60.19,10.8s8-20.74,8.38-34.1c.52-19.3.44-37.07.44-37.07Z"/><path class="cls-119" d="M215.57,1290.81s-5,12.06-9.22,16.84S186,1321,185.9,1335.16c-.1,15.39,27.22,11.12,37.9,10.56s11.49-8.78,16-17.5,9-7.24,9.87-14.27-3.44-22.76-3.44-22.76Z"/><path class="cls-119" d="M429.4,1293.58s14.88,15.62,30,18.9,25.67,7.45,25.78,16.41-43.47,14.87-60.75,5.84c-25.8-13.49-28.42-9.42-31.28-16.17s3.44-24.77,3.25-26.92C396.15,1289,429.4,1293.58,429.4,1293.58Z"/><path class="cls-120" d="M427.63,842.42s15.63,113.52,22,151.89c7.46,44.87,10,81.94,12.07,105.17,2.62,29.21-24.77,186.34-22.94,194.88s-49.31-3.55-49.31-3.55,16.07-187,8.27-218.08c-7.26-29-33.45-156.28-40.08-148.37S309.44,1072,304.53,1094.83s-52.21,201.7-52.21,201.7-35.36,7.6-44.35.44c0,0,30.86-164.31,34-207.14,1.19-16.32,10.86-194.59,38.46-266.81C295,784.85,427.63,842.42,427.63,842.42Z"/><path class="cls-121" d="M20.86,507h0a37.27,37.27,0,0,1,39.69-34.69l48.83,3.28a37.27,37.27,0,0,1,34.69,39.69h0a37.27,37.27,0,0,1-39.69,34.69l-48.83-3.28A37.27,37.27,0,0,1,20.86,507Z"/><rect class="cls-111" x="343.78" y="231.63" width="79.89" height="599.48" transform="translate(939.64 184.15) rotate(93.85)"/><rect class="cls-122" x="372.19" y="205.06" width="26.63" height="599.48" transform="translate(-144.01 855.58) rotate(-86.15)"/><rect class="cls-123" x="370.41" y="231.63" width="26.63" height="599.48" transform="translate(939.63 184.15) rotate(93.85)"/><rect class="cls-124" x="368.62" y="258.2" width="26.63" height="599.48" transform="translate(964.24 214.29) rotate(93.85)"/><polygon class="cls-125" points="680.11 591.33 685.47 511.62 772.05 549.29 794.32 558.97 770.96 565.59 680.11 591.33"/><path class="cls-126" d="M683.68,538.19a13.32,13.32,0,0,1,1.79-26.57Z"/><path class="cls-127" d="M681.9,564.76a13.32,13.32,0,0,1,1.79-26.57Z"/><path class="cls-125" d="M680.11,591.33a13.32,13.32,0,0,1,1.79-26.57Z"/><rect class="cls-128" x="70.94" y="466.13" width="26.63" height="36.84" transform="translate(-404.85 536.09) rotate(-86.15)"/><rect class="cls-129" x="69.15" y="492.69" width="26.63" height="36.84" transform="translate(597.96 463.12) rotate(93.85)"/><rect class="cls-130" x="67.36" y="519.27" width="26.63" height="36.84" transform="translate(622.56 493.25) rotate(93.85)"/><polygon class="cls-126" points="683.68 538.19 794.32 558.97 685.47 511.62 683.68 538.19"/><polygon class="cls-127" points="681.9 564.76 794.32 558.97 683.68 538.19 681.9 564.76"/><polygon class="cls-125" points="681.9 564.76 794.32 558.97 680.11 591.33 681.9 564.76"/><polygon class="cls-131" points="770.96 565.59 772.05 549.29 794.32 558.97 770.96 565.59"/><path class="cls-132" d="M505.83,495.71s-3.1,13.76-.12,17.58,4.38-1.08,4.38-1.08-1.46,4.82,2.3,6.44,5.09-4.21,5.09-4.21a4.08,4.08,0,0,0,4.13,4.18c4.25.21,4.24-4.88,4.24-4.88s3,5.72,6.41,1.76c5.82-6.69,3.5-16.82,3.5-16.82s-.79-2.39-4.89-2.31c0,0-1.54-6-8.13-3.57,0,0-5.3-4.81-8.55,0C514.19,492.83,508.25,488,505.83,495.71Z"/><path class="cls-133" d="M222.06,840.54s19.4,5.89,27.52,4.4,4-101.19,4.34-121.93c.25-16.83,9.46-61.25,9.46-61.25a.36.36,0,0,0,0,.07.08.08,0,0,1,0,0s0,0,0,.07c.91,3.33,13.34,49.43,13.77,71.58.46,23-3,110.92-3,110.92l34.25,3.33,98.42,2.41,20.53-2.42s-2.45-37.6-3.37-55.46c-.57-11.35-2.77-31.68-2.21-51.48,0,0-.36-20.87,1.71-29.85.22-39.67,2.62-78.95,2.62-78.95q2-27,2.79-50.49c-4.34-2.29-9.55-5-13.73-7-12.92-6.15-30.91-14.43-42.46-19.73-6.77-3.11-13.39-5.37-13.39-5.37s-46.16-4.43-49.91-4.19c-1.18.07-7,2.08-14.52,5-16.37,6.21-47.92,18.86-53,22.47-7.37,5.28-23,130.66-23.65,139.43C217.05,728,222.06,840.54,222.06,840.54Z"/><path class="cls-134" d="M424.42,832.08s-67.56,5.75-126.72,0v19.41s88.85,12.83,129.68-3.7Z"/><path class="cls-118" d="M366.81,552.31s11,25.82,19.23,83.52c3.17,22.16,9,59.47,13.3,97.54h0c3.37,30,11,60.82,13.48,83.79C415.36,841,423,911.1,423,911.1l18.48-11.65c2.64-2.44,6.34-5.61,5.26-9-5.08-16.41-14.8-70.64-20.55-117.91,0,0,0-.06,0-.1q-.41-3.42-.8-6.78l0-.36c-1.09-9.45-2-18.51-2.63-26.81a84.59,84.59,0,0,1,.83-18.65c2.58-42.43,3.85-87.16,3.85-87.16,1.36-18.32,4.72-42,5.23-58a100.59,100.59,0,0,1-16.37-3.27S379.81,557.79,366.81,552.31Z"/><path class="cls-135" d="M343.16,430.44s34.28,5.78,28.46,59.44-36.07,48.93-38.09,48.85-30.43.65-31.93-65C301.6,473.77,301.17,425.26,343.16,430.44Z"/><path class="cls-135" d="M358.18,523.18s0,22.11.9,26.89c1,5.15-27.52,20-45.92,2.69,0,0,3.72-24.14,2.56-32.66S358.18,523.18,358.18,523.18Z"/><path class="cls-135" d="M371.76,477.38s3.8-4,5.14.11-4.82,21.33-5.61,23c0,0-.7,1.57-1.6.69S371.76,477.38,371.76,477.38Z"/><path class="cls-135" d="M302,473.27s-3.64-4.13-5.14-.11,4,22.08,4.66,23.2c0,0,1.18,1.85,2.11,1S302,473.27,302,473.27Z"/><path class="cls-136" d="M374.52,470.15c-1.18,7.34-2.3,12.8-2.3,12.8l-5,6.52s.29-14.4-.47-16.67c-.29-.86-.63-2.38-1-4-.57-2.71-1.16-5.78-1.56-6.8-.64-1.63-29.38-10-55,1.76,0,0,.22,2.22.2,4.69,0,2.87-.33,6.1-1.64,6.58-2.45.9-1.43,16.86-1.43,16.86l-4-4.6s-1.15-8.34-2.29-17.92a.63.63,0,0,1,0-.07c-.26-2.24-.52-4.53-.77-6.81-.57-9.64.38-27.14,12.93-37.42,8.47-3.62,22-6.71,44.54.2,0,0,5.17.34,6.62,1.74C377.45,442.42,374.52,470.15,374.52,470.15Z"/><path class="cls-137" d="M318.08,531.56s5.47,7.6,18.18,7.31S354.49,532,354.49,532s-6,12.59-18.29,12.45S318.08,531.56,318.08,531.56Z"/><path class="cls-138" d="M360.41,566.85l-12.79,9.46s10.69-22.78,10.91-31.9Z"/><polygon class="cls-139" points="358.54 544.41 367.29 552.5 376.44 579.79 360.41 566.85 358.54 544.41"/><path class="cls-135" d="M356.94,552.55a150.76,150.76,0,0,1-9.32,23.76S334.2,564.55,330,560.36,356.94,552.55,356.94,552.55Z"/><path class="cls-138" d="M333.58,563.16l14,13.14s-16.6-1.1-19.7-3.87Z"/><path class="cls-139" d="M315,538.94s11.23,18.26,18.63,24.22l-12.46,20.69-20-36.29Z"/><path class="cls-118" d="M255.33,724c-1.43,19.25,6.71,125.78-1.41,127.28s-38-5.07-38-5.07-3.75-114.87-2.54-126.92c.87-8.77,14.83-140.24,22.19-145.52,4.25-3.05,35.79-14.23,51.26-20.33,2.83-1.12,11.78-4.88,14.32-5.84,3.28,3.65,31.87,70.74,34.59,123.07.83,15.93-2.9,49.56-5.74,77-3,29.31-6.38,52.19-8.84,76.71-4.84,48.3-8.23,86.73-8.23,86.73l-48.07-21.4c-7.78-3.89-18.55-19.86-15.62-28,11.11-31.12,25.1-84.3,25.12-111.61,0,0-5.36-66.88-9.61-81.58C264.73,668.46,257.15,699.48,255.33,724Z"/><path class="cls-132" d="M215.81,900.87s-1.63-4-1.49-6.06c0,0,.54-3.77.76-6.48a18.34,18.34,0,0,0,.08-2.1c-.1-2-.94-6.47.18-11.43s6.84-22,6.84-22l15.43,2.29L251,853.23s10,29.18,9.49,33.91a12.07,12.07,0,0,1-.22,1.34c-.82,4-3.1,6.58-3.76,8.61-.25.75-3.23,8-5.46,8.68-3.1,1-5.64.38-7.36-1,0,0-6.16,1.63-10.05-.16,0,0-5.63,1.68-9.85-1.91C223.79,902.68,217.89,903.75,215.81,900.87Z"/><path class="cls-118" d="M256.6,777.81l-.49,84.66s-16.9-.75-40.18-9.35l-1.62-119.38Z"/><rect class="cls-140" x="344.5" y="833.27" width="31.84" height="23.67"/></g></g></svg>