<?xml version="1.0" encoding="UTF-8"?> <!-- Generator: Adobe Illustrator 24.2.1, SVG Export Plug-In . SVG Version: 6.00 Build 0) --> <svg xmlns="http://www.w3.org/2000/svg" xmlns:xlink="http://www.w3.org/1999/xlink" version="1.1" id="Calque_1" x="0px" y="0px" viewBox="0 0 204.2 293.5" style="enable-background:new 0 0 204.2 293.5;" xml:space="preserve"> <style type="text/css"> .st0{clip-path:url(#SVGID_2_);} .st1{fill:url(#SVGID_3_);} .st2{fill:url(#SVGID_4_);} .st3{fill:url(#SVGID_5_);} .st4{fill:url(#SVGID_6_);} .st5{fill:#F69380;} .st6{fill:#D35A51;} .st7{fill:url(#SVGID_7_);} .st8{fill:url(#SVGID_8_);} .st9{fill:url(#SVGID_9_);} .st10{fill:#FFF4E3;} .st11{fill:#F79360;} .st12{fill:#FBD3D6;} .st13{fill:#9B6278;} .st14{fill:url(#SVGID_10_);} .st15{fill:url(#SVGID_11_);} .st16{opacity:0.3;fill:url(#SVGID_12_);enable-background:new ;} .st17{fill:#1F1332;} .st18{fill:#110A11;} .st19{opacity:0.41;fill:url(#SVGID_13_);enable-background:new ;} .st20{fill:#D688A1;} .st21{opacity:0.38;fill:#FFFFFF;enable-background:new ;} .st22{opacity:0.5;fill:#D18C90;enable-background:new ;} .st23{fill:url(#SVGID_14_);} .st24{fill:url(#SVGID_15_);} .st25{fill:url(#SVGID_16_);} .st26{fill:url(#SVGID_17_);} .st27{fill:#FFFFFF;} .st28{fill:url(#SVGID_18_);} .st29{fill:#65BE61;} .st30{fill:#E64141;} .st31{fill:url(#SVGID_19_);} .st32{fill:url(#SVGID_20_);} .st33{fill:url(#SVGID_21_);} .st34{fill:url(#SVGID_22_);} .st35{fill:url(#SVGID_23_);} .st36{fill:url(#SVGID_24_);} .st37{fill:url(#SVGID_25_);} .st38{fill:url(#SVGID_26_);} .st39{fill:url(#SVGID_27_);} .st40{fill:url(#SVGID_28_);} </style> <g id="Calque_2_1_"> <g id="Calque_1-2"> <g> <g> <defs> <rect id="SVGID_1_" y="-2.9" width="208.9" height="296.5"></rect> </defs> <clipPath id="SVGID_2_"> <use xlink:href="#SVGID_1_" style="overflow:visible;"></use> </clipPath> <g class="st0"> <linearGradient id="SVGID_3_" gradientUnits="userSpaceOnUse" x1="317.1872" y1="346.0445" x2="317.1872" y2="317.1393" gradientTransform="matrix(0.9769 0.2135 -0.2135 0.9769 -54.7808 -331.1423)"> <stop offset="0" style="stop-color:#442658"></stop> <stop offset="1" style="stop-color:#0A1433"></stop> </linearGradient> <path class="st1" d="M185.8,46l0.6,0.1c1.4,0.3,2.3,1.7,2,3.2l0,0l-5,23c-0.3,1.4-1.7,2.3-3.2,2l-0.6-0.1l0,0L185.8,46 L185.8,46z"></path> <linearGradient id="SVGID_4_" gradientUnits="userSpaceOnUse" x1="317.2681" y1="361.0545" x2="317.2681" y2="349.7445" gradientTransform="matrix(0.9769 0.2135 -0.2135 0.9769 -54.7882 -331.1268)"> <stop offset="0" style="stop-color:#442658"></stop> <stop offset="1" style="stop-color:#0A1433"></stop> </linearGradient> <path class="st2" d="M178.9,77.9l0.8,0.2c1.3,0.3,2.2,1.6,1.9,3l0,0l-1.4,6.2c-0.3,1.3-1.6,2.2-3,1.9l0,0l-0.8-0.2l0,0 L178.9,77.9L178.9,77.9z"></path> <linearGradient id="SVGID_5_" gradientUnits="userSpaceOnUse" x1="336.0251" y1="364.7" x2="345.3619" y2="364.7" gradientTransform="matrix(0.9769 0.2135 -0.2135 0.9769 -54.7743 -331.1358)"> <stop offset="0" style="stop-color:#F0BEBC"></stop> <stop offset="1" style="stop-color:#F6D8BF"></stop> </linearGradient> <path class="st3" d="M196.4,93.5c0,0,8.2-0.5,7.6,9L196.4,93.5z"></path> <linearGradient id="SVGID_6_" gradientUnits="userSpaceOnUse" x1="268.6845" y1="405.7841" x2="346.0078" y2="405.7841" gradientTransform="matrix(0.9769 0.2135 -0.2135 0.9769 -54.7743 -331.1358)"> <stop offset="0" style="stop-color:#F8A88F"></stop> <stop offset="1" style="stop-color:#FCC4A6"></stop> </linearGradient> <path class="st4" d="M199,113.3l-0.1,0.1c-2.8,3.6-6.3,7.4-9,10.1l-0.1,0.1c-1.7,1.7-3.1,3-3.8,3.6c-4,2.9-8.2,5.5-12.6,7.9 c-0.1,0.1-0.3,0.2-0.4,0.3c-1.2,1-5.1,4.4-9.9,8.7c-11.8,10.7-29.6,27.1-29.6,27.1s-20.9-11.7-18.3-22.1 c0,0,16.6-10.8,21.5-14.2s21.1-17.1,22.7-19.2l0.1-0.2c3.4-4.1,7.2-7.7,11.6-10.8c1.7-1.2,3.7-2.6,5.8-4 c6.2-4,13.4-8.1,17.1-7.9c4.2,0.3,10,5.3,10.2,11.3C204.3,106,202,109.5,199,113.3z"></path> <path class="st5" d="M198.9,113.4c-2.8,3.6-6.3,7.4-9,10.1l-0.1,0.1c-1.7,1.7-3.1,3-3.8,3.6c-4,2.9-8.2,5.5-12.6,7.9 c-0.1,0.1-0.3,0.2-0.4,0.3l-7.8,2.3l-0.5-22.2l12.3-14.8c0,0-3.7,13.2-1.8,16.6c2.6,4.5,9.9,6.7,13.2,5.7 C191.4,122.1,197.8,114.6,198.9,113.4z"></path> <path class="st6" d="M189.8,123.6c-1.7,1.7-3.1,3-3.8,3.6c-4,2.9-8.2,5.5-12.6,7.9c-0.5,0.2-4.7,4-10.3,9l-3.6-28.6 c3.4-4.1,7.2-7.7,11.6-10.8c1.7-1.2,3.7-2.6,5.8-4l0,0c0,0-5.1,20.4-5,22.7s6.4,5.3,8.9,5.5 C183.3,129.1,189.1,124.2,189.8,123.6z"></path> <linearGradient id="SVGID_7_" gradientUnits="userSpaceOnUse" x1="237.7558" y1="648.0958" x2="237.7558" y2="319.5867" gradientTransform="matrix(0.9769 0.2135 -0.2135 0.9769 -54.7743 -331.1358)"> <stop offset="0" style="stop-color:#F8A88F"></stop> <stop offset="1" style="stop-color:#FCC4A6"></stop> </linearGradient> <path class="st7" d="M140.6,233.4c0,0-8.8,5.6-19.5,12.1c-14.7,8.9-33.1,19.5-38.2,20.3c-8.9,1.4-23.9-3.7-23.9-3.7l-0.1,4.8 l-1.2,89.9L0,344.2c0,0,13.2-101.9,14.5-113c0.1-0.5,0.1-0.9,0.1-0.9c0.1-2.2-10.6-42.3-11.3-49s12-40.4,12.3-42.6 c0,0,0,0,0-0.1c0.2-1.4,0.1-9.2,0.4-16.6c0-0.3,0-0.6,0-0.9c0-3.6,0.3-7.1,0.7-10.7l0.1-0.5c0.1-0.4,0.2-0.8,0.3-1.2l0.1-0.2 c0.7-1.5,12.7-14.2,20.4-23.2c10.2-12,12.6-20,13.8-20.1s3,1.6,5,4.5l0,0c1.8,2.6,3.3,5.7,3.5,8.1c0.4,5-7.4,33.1-12.9,40.3 c-1.9,1.1-4,1.7-6.2,1.7c-0.6,11.1,1.1,22.3,4.8,32.8l0,0c0,0,33.3-21.9,37.3-24.7c4-2.8,41.5-43.6,46.6-49.2 s28.8-32.9,32.9-33.9c4.1-0.9,8.4,0,11.7,2.6c2.7,2.3,2.5,8.4,2,10.2s-29,39.2-31.5,42.8s-27.9,36.7-27.9,36.7 S142.5,193.6,140.6,233.4z"></path> <path class="st5" d="M121.1,245.5c-14.7,8.9-33.1,19.5-38.2,20.3c-8.9,1.4-23.9-3.7-23.9-3.7l-0.1,4.8l-38.2-17.1 c0,0-2.8-7.8-6.1-18.6c0.1-0.5,0.1-0.9,0.1-0.9c0.1-2.2-10.6-42.3-11.3-49c0,0,34.1,8.8,40.8,7.4s77.3-11.9,77.3-11.9 L121.1,245.5z"></path> <path class="st6" d="M136.9,197.6c0,0,20.2-3.7,23.4-2.6s6.7,14.3,3.1,20.5s-19.9,16-22.8,17.8 C140.6,233.4,133.6,200.1,136.9,197.6z"></path> <linearGradient id="SVGID_8_" gradientUnits="userSpaceOnUse" x1="178.0814" y1="376.5307" x2="190.4948" y2="376.5307" gradientTransform="matrix(0.9769 0.2135 -0.2135 0.9769 -54.7743 -331.1358)"> <stop offset="0" style="stop-color:#F0BEBC"></stop> <stop offset="1" style="stop-color:#F6D8BF"></stop> </linearGradient> <path class="st8" d="M36.2,86.9c0,0,11.6-8.8,15.7-13.7c0,0,0.4-7.5-1.5-8.7C50.3,64.6,40.8,77.3,36.2,86.9z"></path> <path class="st5" d="M44.5,150c-0.5-0.6-9-9.5-28.9-11.3c0,0,0,0,0-0.1c0-0.8,0.1-9,0.4-16.6c0-0.3,0-0.6,0-0.9 c0.2-4.3,0.4-8.4,0.7-10.7l0.1-0.5c0-0.4,0.1-0.8,0.3-1.2l0.1-0.2c0,0,15,6.3,25.8,0.9c5.5-2.7,11-14.1,13.5-23.7 c2.4-9.3-0.1-15.6-0.2-16c1.8,2.6,3.3,5.7,3.5,8.1c0.4,5-7.4,33.1-12.9,40.3c-1.9,1.1-4,1.7-6.2,1.7 C40.5,119.9,38.2,132.4,44.5,150z"></path> <path class="st6" d="M36,226.1c0,0,69.4,17,71.7,18.3s-8.2,13.7-8.2,13.7l25.1-14.7L36,226.1z"></path> <linearGradient id="SVGID_9_" gradientUnits="userSpaceOnUse" x1="222.1535" y1="648.0858" x2="222.1535" y2="533.6238" gradientTransform="matrix(0.9769 0.2135 -0.2135 0.9769 -54.7743 -331.1358)"> <stop offset="0" style="stop-color:#FCC4A6"></stop> <stop offset="1" style="stop-color:#F4816D"></stop> </linearGradient> <path class="st9" d="M58.9,262.1c0,0-8.6-17.8-18.9-19.6c-7.3-1.2-25.5-12.3-25.5-12.3s-1.8,14.6-2.8,22.7 c0,0,18.6,15.4,42.8,19.6l3.2,84.3L58.9,262.1z"></path> <path class="st10" d="M50.3,64.6L48.7,67c0,0,2.2,4.7,1.2,8.2l2-1.9C51.9,73.3,53,67.5,50.3,64.6z"></path> <path class="st11" d="M36.1,87.4c5.4-3.6,10.3-8,14.6-13c0,0-10.5,9.7-13.1,9.7L36.1,87.4z"></path> <path class="st6" d="M58.9,262.1c-5.1-2-9.9-4.9-14.1-8.5c0,0,7.4,15.7,13.8,19L58.9,262.1z"></path> <polygon class="st6" points="41.6,138.2 40,178.2 45,152 "></polygon> <path class="st12" d="M51.5,66.8L39.8,82.3L52,71.2C51.9,69.7,51.7,68.2,51.5,66.8z"></path> <path class="st6" d="M126.6,166.9c0,0,21.1-8.9,30.2-11.7s19.1-3.1,21.7-1.9s4.2,6.5,3.4,13.2s-1.6,9-4.4,13 c-2,2.8-27.5,11.1-33.7,13.1c-3.5,1.3-6.8,2.7-10.1,4.3C133.7,196.9,126.4,171.3,126.6,166.9z"></path> <path class="st13" d="M190.4,32.1c-17.7,77.7-29.8,133.5-47.5,204.1c-1.2,4.8-5.9,7.9-10.8,7.1c-34.4-5.6-57.5-9.7-91.6-18 c-4.9-1.2-8-6-7.1-10.9c13.4-74.7,24-125.6,41-206.8c1.1-5,5.9-8.3,11-7.4c6.2,1.1,12.1,2.1,17.8,3.2 c22.1,4.1,41.5,8,65.2,13.7c4.9,1.1,9.9,2.4,15.1,3.7C188.5,22,191.6,27,190.4,32.1z"></path> <linearGradient id="SVGID_10_" gradientUnits="userSpaceOnUse" x1="257.841" y1="524.9025" x2="257.841" y2="293.6613" gradientTransform="matrix(0.9769 0.2135 -0.2135 0.9769 -54.7743 -331.1358)"> <stop offset="0" style="stop-color:#0A1433"></stop> <stop offset="1" style="stop-color:#442658"></stop> </linearGradient> <path class="st14" d="M40.3,226.6c34.1,8.3,57.2,12.4,91.6,18c4.9,0.8,9.6-2.3,10.8-7.1c17.7-70.6,29.8-126.3,47.5-204.1 c1.1-5.1-2-10.1-7-11.4C145.5,12.7,120,7.7,85.1,1.5c-5.1-0.9-9.9,2.4-11,7.4C57.1,90.1,46.5,141,33.2,215.6 C32.3,220.6,35.4,225.4,40.3,226.6z"></path> <linearGradient id="SVGID_11_" gradientUnits="userSpaceOnUse" x1="258.8881" y1="509.8566" x2="258.8881" y2="305.9141" gradientTransform="matrix(0.9769 0.2135 -0.2135 0.9769 -54.7743 -331.1358)"> <stop offset="0" style="stop-color:#442658"></stop> <stop offset="1" style="stop-color:#12121C"></stop> </linearGradient> <polygon class="st15" points="78.9,11.2 35.4,210.4 143.2,234 186.6,35 "></polygon> <linearGradient id="SVGID_12_" gradientUnits="userSpaceOnUse" x1="206.3479" y1="498.6753" x2="311.4454" y2="498.6753" gradientTransform="matrix(0.9769 0.2135 -0.2135 0.9769 -54.7743 -331.1358)"> <stop offset="0" style="stop-color:#B6E4FA"></stop> <stop offset="1" style="stop-color:#0A58A5"></stop> </linearGradient> <polygon class="st16" points="40.4,199.8 40.3,200.5 142.8,222.9 143.1,222.1 "></polygon> <path class="st13" d="M140.1,21.1l-20.6-4.5c-0.6-0.1-1-0.7-0.8-1.3l0,0c0.1-0.6,0.7-1,1.3-0.8l20.6,4.5c0.6,0.1,1,0.7,0.8,1.3 l0,0C141.3,20.9,140.7,21.3,140.1,21.1z"></path> <path class="st17" d="M140.2,20.9l-20.6-4.5c-0.6-0.1-1-0.7-0.8-1.3l0,0c0.1-0.6,0.7-1,1.3-0.8l20.6,4.5c0.6,0.1,1,0.7,0.8,1.3 l0,0C141.4,20.6,140.8,21,140.2,20.9z"></path> <ellipse class="st17" cx="146.1" cy="21" rx="2.4" ry="2.4"></ellipse> <ellipse class="st18" cx="146.1" cy="21" rx="1.4" ry="1.4"></ellipse> <linearGradient id="SVGID_13_" gradientUnits="userSpaceOnUse" x1="232.8852" y1="514.5886" x2="232.8852" y2="296.7526" gradientTransform="matrix(0.9769 0.2135 -0.2135 0.9769 -54.7743 -331.1358)"> <stop offset="0" style="stop-color:#010101"></stop> <stop offset="1" style="stop-color:#F1AC90"></stop> </linearGradient> <path class="st19" d="M64.3,221.6l75.3-206.4c0,0-19.4-4.8-52.3-10.6c-4.8-0.8-9.3,2.3-10.3,7C61,88.1,38.6,213.4,38.6,213.4 L64.3,221.6z"></path> <path class="st20" d="M169.1,18.6C157.5,15.1,101,4.3,101,4.3l2.1-1c22.1,4.1,41.5,8,65.2,13.7L169.1,18.6z"></path> <polygon class="st21" points="65.3,216.9 68.5,215.5 119,226.6 122.2,229.4 "></polygon> <path class="st22" d="M151.6,160.2c0,0-8.7,13-6.7,24.2s8.6,9,8.6,9c-7.5,1.7-13.9,6.7-17.1,13.7c-5.5,11.8,6.6,29,6.6,29 l13.4-55.2L151.6,160.2z"></path> <linearGradient id="SVGID_14_" gradientUnits="userSpaceOnUse" x1="297.6086" y1="481.8067" x2="330.4887" y2="481.8067" gradientTransform="matrix(0.9769 0.2135 -0.2135 0.9769 -54.7743 -331.1358)"> <stop offset="0" style="stop-color:#F8A88F"></stop> <stop offset="1" style="stop-color:#FCC4A6"></stop> </linearGradient> <path class="st23" d="M163.4,215.6c-1.4,1.1-5.8,2.8-10.6,3.9c-4.2,0.9-8.6,1.4-11.3,0.6c-5.9-1.8-8.8-12.5-8.6-14.9 s0.6-6.8,4-9c1.7-0.9,3.6-1.4,5.5-1.7l0,0c6.8-1.2,16.8-1.3,18-0.6C165.9,197.1,166,213.5,163.4,215.6z"></path> <linearGradient id="SVGID_15_" gradientUnits="userSpaceOnUse" x1="308.6942" y1="481.2552" x2="318.6154" y2="481.2552" gradientTransform="matrix(0.9769 0.2135 -0.2135 0.9769 -54.7743 -331.1358)"> <stop offset="0" style="stop-color:#F0BEBC"></stop> <stop offset="1" style="stop-color:#F6D8BF"></stop> </linearGradient> <path class="st24" d="M145.7,197.5c0,0,5.5,8.8,3.6,16.4c3.1-2.1,4.9-5.7,4.6-9.4C153.4,198.1,145.7,197.5,145.7,197.5z"></path> <path class="st5" d="M152.8,219.5L152.8,219.5c-4.2,0.9-8.6,1.4-11.3,0.6c-5.9-1.8-8.8-12.5-8.6-14.9s0.6-6.8,4-9 c1.7-0.9,3.6-1.4,5.5-1.7c-0.3,0.2-2.5,1.5-2.5,2.4s5.3,19.8,6.9,21.2S152.4,219.5,152.8,219.5z"></path> <path class="st5" d="M145.7,197.5c0,0,8.1,0.2,9.8,5.8s-6.2,10.6-6.2,10.6s4.2-3.7,4.6-8.9C154.4,199,145.7,197.5,145.7,197.5z "></path> <path class="st10" d="M145.7,197.5c0,0,4,4.6,3.6,16.4l0.6-0.4c0.7-2.9,0.8-5.8,0.4-8.7c-0.4-2.6-1.5-5.1-3.2-7.1L145.7,197.5z "></path> <path class="st12" d="M147.1,200.2l5.5,0.7c0.6,0.8,1,1.7,1.2,2.7l-5.5-0.5L147.1,200.2z"></path> <linearGradient id="SVGID_16_" gradientUnits="userSpaceOnUse" x1="305.1382" y1="441.0522" x2="339.269" y2="441.0522" gradientTransform="matrix(0.9769 0.2135 -0.2135 0.9769 -54.7743 -331.1358)"> <stop offset="0" style="stop-color:#F8A88F"></stop> <stop offset="1" style="stop-color:#FCC4A6"></stop> </linearGradient> <path class="st25" d="M179.4,179.4c-1.4,1-2.9,1.9-4.5,2.5l0,0h-0.1c-4.4,2-10.4,3.8-13.3,3.6c-4.2-0.4-8.3-4.1-10.4-9.3 c-1.2-3-4.3-11.4,0.5-15.9c1.6-1.5,4.7-3,8.2-4.2l0,0c7.2-2.5,16.4-4,18.6-2.7C186.9,157.9,182.6,176.8,179.4,179.4z"></path> <linearGradient id="SVGID_17_" gradientUnits="userSpaceOnUse" x1="315.0643" y1="441.0637" x2="331.0193" y2="441.0637" gradientTransform="matrix(0.9769 0.2135 -0.2135 0.9769 -54.7743 -331.1358)"> <stop offset="0" style="stop-color:#F0BEBC"></stop> <stop offset="1" style="stop-color:#F6D8BF"></stop> </linearGradient> <path class="st26" d="M160.4,159.8c0,0,6.4,4.6,8,18c0,0,7-3.3,6.3-11.3S160.4,159.8,160.4,159.8z"></path> <path class="st5" d="M174.8,181.9c-4.4,2-10.4,3.8-13.3,3.6c-4.2-0.4-8.3-4.1-10.4-9.3c-1.2-3-4.3-11.4,0.5-15.9 c1.6-1.5,4.7-3,8.2-4.2c-0.4,0.2-3.5,2.3-3.8,3.3s7.8,22.7,9.5,24S174.1,182.2,174.8,181.9z"></path> <path class="st5" d="M160.4,159.8c0,0,12.3-1.6,15.2,5.1s-7.2,12.9-7.2,12.9s7.4-5.7,6.3-11.3 C173.4,159.1,160.4,159.8,160.4,159.8z"></path> <path class="st10" d="M160.4,159.8h2.2c0,0,8.4,7.2,7.2,17l-1.7,1.4C168.1,178.1,168.1,167.1,160.4,159.8z"></path> <path class="st12" d="M164.7,165.4l9.4-0.8c-0.7-1.3-1.7-2.3-3-2.9l-8.4,0.8L164.7,165.4z"></path> <path class="st27" d="M84.2,16.5l7.8,1.7c0.2,0,0.4,0.3,0.3,0.5v0.2c0,0.2-0.3,0.4-0.5,0.3L84,17.5c-0.2,0-0.4-0.3-0.3-0.5 v-0.2C83.7,16.6,83.9,16.5,84.2,16.5z"></path> <path class="st27" d="M89.3,21l-5.7-1.2c-0.3-0.1-0.5-0.3-0.4-0.6l0,0l0,0c0.1-0.3,0.3-0.5,0.6-0.4l0,0l5.7,1.2 c0.3,0.1,0.5,0.3,0.4,0.6l0,0l0,0C89.8,20.9,89.6,21.1,89.3,21L89.3,21z"></path> <path class="st27" d="M86.4,22.6l-3.3-0.7c-0.3-0.1-0.5-0.3-0.4-0.6l0,0l0,0c0.1-0.3,0.3-0.5,0.6-0.4l0,0l3.3,0.7 c0.3,0.1,0.5,0.3,0.4,0.6l0,0l0,0C86.9,22.5,86.6,22.7,86.4,22.6L86.4,22.6z"></path> <linearGradient id="SVGID_18_" gradientUnits="userSpaceOnUse" x1="223.721" y1="648.0958" x2="223.721" y2="555.3093" gradientTransform="matrix(0.9769 0.2135 -0.2135 0.9769 -54.7743 -331.1358)"> <stop offset="0" style="stop-color:#F4816D"></stop> <stop offset="1" style="stop-color:#F8A38A"></stop> </linearGradient> <path class="st28" d="M10.3,264.1c0,0-6.4,68.5-3.8,71.7s33.9,11.4,44.4,8.6c5.8-1.5,8-82.3,8-82.3l-1.2,94.7L0,344.2 L10.3,264.1z"></path> <path class="st27" d="M91.6,116.2h-0.2l-1.5-6.6h0.2l1.4,6.4l4-5.2h0.2L91.6,116.2z"></path> <path class="st27" d="M98.9,115.6c-0.3,1.2-1.4,1.9-2.6,1.6s-1.9-1.4-1.6-2.6s1.4-1.9,2.6-1.6l0,0 C98.4,113.3,99.1,114.5,98.9,115.6L98.9,115.6z M98.7,115.6c0.3-1.1-0.3-2.2-1.4-2.5s-2.2,0.3-2.5,1.4s0.3,2.2,1.4,2.5h0.1 C97.4,117.3,98.4,116.6,98.7,115.6L98.7,115.6z"></path> <path class="st27" d="M101.7,118.4c-0.2,0-0.5,0-0.7,0c-0.9-0.2-1.1-0.7-0.9-1.7l0.5-2.4l-1.2-0.3v-0.2l1.2,0.3l0.3-1.5h0.2 l-0.3,1.5l1.5,0.3v0.2l-1.5-0.3l-0.5,2.4c-0.2,0.9,0,1.3,0.7,1.5C101.2,118.2,101.5,118.3,101.7,118.4L101.7,118.4z"></path> <path class="st27" d="M103.4,115.5c0.5-0.5,1.2-0.8,1.9-0.7v0.2c-0.8-0.1-1.5,0.2-1.9,0.9l-0.6,2.7h-0.2l0.9-4h0.2L103.4,115.5 z"></path> <path class="st27" d="M109.1,117.9L109.1,117.9l-3.8-0.8c-0.2,1,0.4,2,1.4,2.2c0.6,0.2,1.3,0,1.7-0.5h0.2 c-0.4,0.6-1.2,0.9-1.9,0.6c-1.2-0.3-1.9-1.4-1.6-2.6c0.3-1.1,1.4-1.9,2.5-1.6c1.1,0.2,1.8,1.3,1.5,2.4 C109.2,117.7,109.1,117.8,109.1,117.9z M108.9,117.7c0.2-1-0.3-1.9-1.3-2.2l0,0c-1-0.2-2,0.4-2.2,1.4L108.9,117.7z"></path> <path class="st27" d="M116,119.4L116,119.4l-3.8-0.8c-0.2,1,0.4,2,1.4,2.3c0.6,0.2,1.3,0,1.7-0.5h0.2c-0.5,0.6-1.2,0.9-1.9,0.6 c-1.2-0.3-1.9-1.4-1.6-2.6c0.3-1.1,1.4-1.9,2.5-1.6c1.1,0.2,1.8,1.3,1.5,2.4C116.1,119.2,116,119.3,116,119.4z M115.8,119.2 c0.2-1-0.3-1.9-1.3-2.2l0,0c-1-0.2-2,0.4-2.2,1.4L115.8,119.2z"></path> <path class="st27" d="M118,120l-2,1.5l-0.2-0.1l2.2-1.6l-1.3-2.4l0.2,0.1l1.2,2.2l2-1.5l0.2,0.1l-2.1,1.6l1.3,2.3l-0.2-0.1 L118,120z"></path> <path class="st27" d="M124.7,121.3c-0.3,1.2-1.4,1.9-2.6,1.6c-0.6-0.1-1.2-0.6-1.5-1.1l-0.6,2.9h-0.2l1.4-6.2h0.2l-0.2,0.7 c0.9-0.8,2.3-0.6,3.1,0.3C124.7,120,124.8,120.6,124.7,121.3L124.7,121.3z M124.5,121.3c0.2-1.1-0.4-2.1-1.5-2.3 c-0.7-0.2-1.4,0.1-1.9,0.6l-0.4,2c0.2,0.7,0.8,1.1,1.5,1.3C123.2,123,124.3,122.3,124.5,121.3L124.5,121.3z"></path> <path class="st27" d="M129.4,122.3L129.4,122.3l-3.8-0.8c-0.2,1,0.4,2,1.4,2.3c0.6,0.2,1.3,0,1.7-0.5h0.2 c-0.4,0.6-1.2,0.9-1.9,0.6c-1.2-0.3-1.9-1.4-1.6-2.6c0.3-1.1,1.4-1.9,2.5-1.6c1.1,0.2,1.8,1.3,1.5,2.4 C129.4,122.2,129.4,122.3,129.4,122.3z M129.2,122.2c0.2-1-0.3-1.9-1.3-2.2l0,0c-1-0.2-2,0.4-2.2,1.4L129.2,122.2z"></path> <path class="st27" d="M130.8,121.5c0.5-0.5,1.2-0.8,1.9-0.7v0.2c-0.8-0.1-1.5,0.2-1.9,0.9l-0.6,2.7H130l0.9-4h0.2L130.8,121.5z "></path> <path class="st27" d="M134.7,125.6c-0.2,0-0.5,0-0.7,0c-0.9-0.2-1.1-0.7-0.9-1.7l0.5-2.4l-1.2-0.3V121l1.2,0.3l0.3-1.5h0.2 l-0.3,1.5l1.5,0.3v0.2l-1.5-0.3l-0.5,2.4c-0.2,0.9,0,1.4,0.7,1.5C134.2,125.4,134.5,125.5,134.7,125.6L134.7,125.6z"></path> <path class="st27" d="M91.9,122.6l-3.1-0.7c0,0.5,0.4,0.9,0.9,1c0.3,0.1,0.6,0,0.8-0.2l1.3,0.3c-0.5,0.8-1.4,1.2-2.3,0.9 c-1.2-0.2-2-1.4-1.8-2.6s1.4-2,2.6-1.8h0.1c1.1,0.2,1.8,1.3,1.6,2.5l0,0C92,122.3,91.9,122.4,91.9,122.6z M89,121.1l1.9,0.4 c0.1-0.5-0.3-0.9-0.7-1C89.7,120.4,89.2,120.6,89,121.1z M90,118.8l1-1.2l1.3,0.3l-1.3,1.2L90,118.8z"></path> <path class="st27" d="M96.7,123l-0.5,2.3l-1.2-0.2l0.5-2.2c0.2-0.7-0.1-1.1-0.7-1.2c-0.4,0-0.7,0.1-1,0.3l-0.6,2.7l-1.2-0.3 l0.9-4.2l1.2,0.3l-0.1,0.3c0.4-0.2,0.9-0.3,1.3-0.2C96.3,120.9,96.9,121.9,96.7,123C96.7,122.9,96.7,122.9,96.7,123z"></path> <path class="st27" d="M101.2,124.6l-3.1-0.7c0,0.5,0.4,0.9,0.9,1c0.3,0.1,0.6,0,0.8-0.2l1.2,0.2c-0.5,0.8-1.4,1.2-2.3,0.9 c-1.2-0.2-2-1.4-1.8-2.6s1.4-2,2.6-1.8h0.1c1.1,0.2,1.9,1.3,1.7,2.4c0,0.1,0,0.1,0,0.2C101.2,124.3,101.2,124.5,101.2,124.6z M98.3,123.1l1.9,0.4c0.1-0.5-0.2-0.9-0.7-1l0,0C98.9,122.4,98.5,122.7,98.3,123.1z"></path> <path class="st27" d="M103.2,122.9c0.5-0.3,1.1-0.4,1.6-0.2l-0.2,1.2c-0.6-0.1-1.1,0-1.6,0.3l-0.6,2.5l-1.2-0.3l0.9-4.2 l1.2,0.3L103.2,122.9z"></path> <path class="st27" d="M108.4,127.9c-0.2,1.1-1.2,1.9-2.4,1.7c-0.1,0-0.2,0-0.3-0.1c-1.1-0.1-1.9-1.2-1.8-2.3l1.2,0.3 c0,0.4,0.2,0.8,0.8,0.9c0.5,0.1,1.1-0.2,1.2-0.8l0,0l0.1-0.5c-0.4,0.1-0.8,0.2-1.3,0.1c-1.1-0.2-1.9-1.4-1.7-2.5 c0.2-1.2,1.3-1.9,2.5-1.7h0.1c0.4,0.1,0.8,0.3,1.1,0.6v-0.2l1.2,0.3L108.4,127.9z M107.6,126l0.2-1.1c-0.2-0.4-0.5-0.6-0.9-0.7 c-0.6-0.1-1.2,0.2-1.3,0.8v0.1c-0.1,0.6,0.3,1.1,0.9,1.3C106.9,126.4,107.3,126.3,107.6,126z"></path> <path class="st27" d="M113.5,127.3l-3.1-0.7c0,0.5,0.4,0.9,0.9,1c0.3,0.1,0.6,0,0.8-0.2l1.3,0.3c-0.5,0.8-1.4,1.2-2.3,0.9 c-1.2-0.2-2-1.4-1.8-2.6s1.4-2,2.6-1.8h0.1c1.1,0.2,1.9,1.3,1.7,2.4c0,0.1,0,0.1,0,0.2C113.6,127,113.5,127.2,113.5,127.3z M110.6,125.8l1.9,0.4c0.1-0.5-0.3-0.9-0.7-1C111.3,125.1,110.8,125.4,110.6,125.8z M111.6,123.5l1-1.2l1.3,0.3l-1.2,1.2 L111.6,123.5z"></path> <path class="st27" d="M116.8,129.8c-0.4,0.1-0.8,0-1.2-0.1c-0.9-0.2-1.5-1.1-1.3-2c0-0.1,0-0.1,0.1-0.2l0.3-1.5l-0.9-0.2l0.2-1 l0.9,0.2l0.3-1.5l1.2,0.3l-0.3,1.5l1.5,0.3l-0.2,1l-1.5-0.3l-0.3,1.5c-0.1,0.3,0.1,0.7,0.4,0.8c0.1,0,0.1,0,0.2,0 c0.2,0,0.5,0,0.7,0L116.8,129.8z"></path> <path class="st27" d="M118.4,130.2l-1.2-0.3l0.9-4.2l1.2,0.3L118.4,130.2z M118.3,124.2c0.1-0.4,0.5-0.7,0.9-0.6 s0.7,0.5,0.6,0.9l0,0c-0.1,0.4-0.5,0.7-0.9,0.6S118.2,124.6,118.3,124.2z"></path> <path class="st27" d="M122.9,133.3l-1.2-0.3l0.5-2.3c-0.4,0.1-0.8,0.2-1.3,0.1c-1.2-0.3-2-1.5-1.7-2.7c0.3-1.2,1.5-2,2.7-1.7 c0.4,0.1,0.8,0.3,1.1,0.6l0.1-0.2l1.2,0.3L122.9,133.3z M122.4,129.5l0.3-1.4c-0.2-0.4-0.5-0.6-0.9-0.7 c-0.6-0.1-1.2,0.3-1.3,0.9l0,0c-0.2,0.6,0.2,1.2,0.8,1.4l0,0C121.7,129.9,122.1,129.8,122.4,129.5L122.4,129.5z"></path> <path class="st27" d="M128.2,132.3l-1.2-0.2l0.1-0.3c-0.4,0.2-0.9,0.3-1.3,0.2c-1-0.2-1.7-1.2-1.5-2.2c0-0.1,0-0.2,0.1-0.2 l0.5-2.3l1.2,0.3l-0.5,2.2c-0.2,0.7,0.1,1.1,0.7,1.2c0.4,0,0.7-0.1,1-0.3l0.6-2.7l1.2,0.3L128.2,132.3z"></path> <path class="st27" d="M133.3,131.7l-3.1-0.7c0,0.5,0.4,0.9,0.9,1c0.3,0.1,0.6,0,0.8-0.2l1.3,0.3c-0.5,0.8-1.4,1.2-2.3,0.9 c-1.2-0.2-2-1.4-1.8-2.6c0.2-1.2,1.4-2,2.6-1.8h0.1c1.1,0.2,1.9,1.3,1.7,2.4c0,0.1,0,0.1,0,0.2 C133.4,131.3,133.3,131.5,133.3,131.7z M130.4,130.1l1.9,0.4c0.1-0.5-0.2-0.9-0.7-1l0,0C131.1,129.4,130.6,129.7,130.4,130.1z"></path> <ellipse class="st29" cx="77.3" cy="166.2" rx="12.4" ry="12.4"></ellipse> <path class="st27" d="M75,159.3c0.2,0.1,0.3,0.3,0.4,0.5c0.3,0.9,0.7,1.7,1,2.5c0.1,0.3,0,0.6-0.2,0.8 c-0.2,0.1-0.4,0.2-0.6,0.3l-0.5,0.2c-0.4,0.2-0.6,0.6-0.6,1s0.1,0.8,0.3,1.2c0.5,1.3,1.3,2.4,2.4,3.3c0.1,0.1,0.3,0.2,0.5,0.3 c0.3,0.2,0.7,0.2,1-0.1c0.2-0.1,0.3-0.3,0.5-0.4c0.1-0.1,0.2-0.2,0.3-0.3c0.3-0.3,0.7-0.2,1,0.1l1.7,1.7l0.2,0.2 c0.2,0.1,0.3,0.3,0.3,0.6l-0.1,0.3l0,0c-0.2,0.5-0.6,1-1,1.4c-0.2,0.2-0.4,0.3-0.6,0.3c-0.4,0-0.9-0.1-1.3-0.1 c-1.4-0.3-2.8-1-3.8-2c-1.5-1.3-2.6-2.9-3.3-4.8c-0.5-1.2-0.7-2.5-0.6-3.7c0-0.2,0-0.4,0.1-0.7l0.2-0.8V161l0.3-0.7 c0.1-0.2,0.2-0.4,0.4-0.5c0.2-0.1,0.4-0.2,0.7-0.3C74.1,159.4,74.5,159.3,75,159.3L75,159.3z"></path> <ellipse transform="matrix(0.2135 -0.9769 0.9769 0.2135 -75.075 259.3224)" class="st30" cx="123.5" cy="176.3" rx="12.5" ry="12.4"></ellipse> <path class="st27" d="M129.8,180.7c-0.2,0.1-0.4,0-0.6-0.1l-2.5-1.1c-0.3-0.1-0.5-0.4-0.4-0.7c0.1-0.2,0.1-0.4,0.2-0.6 c0.1-0.2,0.1-0.3,0.2-0.5c0.1-0.4,0-0.9-0.3-1.1c-0.3-0.3-0.7-0.5-1.1-0.6c-1.2-0.6-2.6-0.8-4-0.7c-0.2,0-0.4,0.1-0.5,0.1 c-0.3,0.1-0.6,0.4-0.6,0.7c0,0.2,0,0.4,0,0.6c0,0.2,0,0.3,0,0.5c0,0.4-0.4,0.7-0.8,0.7l0,0H117h-0.3c-0.2,0-0.4,0-0.6-0.2 l-0.2-0.3l0,0c-0.2-0.5-0.3-1.1-0.2-1.7c0-0.2,0.1-0.5,0.2-0.6c0.3-0.3,0.6-0.6,1-0.8c1.2-0.8,2.7-1.3,4.1-1.3 c2-0.1,3.9,0.2,5.7,1.1c1.2,0.5,2.2,1.3,3.1,2.2c0.1,0.2,0.3,0.4,0.4,0.5l0.4,0.7v0.1l0.3,0.7c0.1,0.2,0.1,0.5,0.1,0.7 c-0.1,0.2-0.2,0.4-0.3,0.7c-0.2,0.4-0.4,0.7-0.7,1L129.8,180.7z"></path> </g> </g> </g> </g> </g> <g id="Calque_2_2_"> <g id="Layer_1"> <polygon class="st27" points="103.2,77.5 99.9,83.4 101.1,84.6 105.1,77.9 "></polygon> <linearGradient id="SVGID_19_" gradientUnits="userSpaceOnUse" x1="94.3975" y1="208.1003" x2="99.0205" y2="208.1003" gradientTransform="matrix(0.9802 0.1979 0.1979 -0.9802 -36.1853 265.4395)"> <stop offset="0.14" style="stop-color:#E0E1E2"></stop> <stop offset="1" style="stop-color:#FFFFFF"></stop> </linearGradient> <path class="st31" d="M100.6,81.6l-0.6-4.8l-1.8-0.4l0.9,7.2c0,0.4,0.3,0.6,0.7,0.7l1.2,0.2l0.4-0.7 C101,83.5,100.7,81.8,100.6,81.6z"></path> <rect x="83.5" y="77.4" transform="matrix(0.1979 -0.9802 0.9802 0.1979 -6.4733 148.2763)" class="st27" width="7.8" height="1.5"></rect> <linearGradient id="SVGID_20_" gradientUnits="userSpaceOnUse" x1="77.301" y1="211.0112" x2="82.4876" y2="203.0733" gradientTransform="matrix(0.9802 0.1979 0.1979 -0.9802 -36.1853 265.4395)"> <stop offset="0.14" style="stop-color:#E0E1E2"></stop> <stop offset="1" style="stop-color:#FFFFFF"></stop> </linearGradient> <path class="st32" d="M87.3,81.5c-0.6-0.5-1-2-1-2l-2.8-6.3l-1.1-0.2L81,80.2c-0.1,0.3,0.1,0.6,0.5,0.7c0,0,0,0,0,0l0.8,0.2l1-5.1 l2.6,5.9l1.4,0.3L87.3,81.5L87.3,81.5z"></path> <path class="st27" d="M96.5,77.1c-0.6-0.9-1.5-1.5-2.5-1.7c-1-0.2-2.1,0-3,0.6c-0.9,0.6-1.5,1.5-1.7,2.5c-0.2,1.2,0,2.3,0.7,3.2 c1.3,1.7,3.7,2.1,5.5,1c0.9-0.6,1.5-1.5,1.7-2.5C97.3,79.1,97.1,78,96.5,77.1z M92.6,81.9c-0.7-0.1-1.2-0.5-1.6-1.1 c-0.4-0.6-0.6-1.3-0.4-2c0.1-0.7,0.5-1.3,1.1-1.7c0.6-0.4,1.3-0.5,2-0.4c0.7,0.1,1.3,0.5,1.6,1.1c0.4,0.6,0.5,1.3,0.4,2 c-0.1,0.7-0.5,1.3-1.1,1.7C94,81.9,93.3,82.1,92.6,81.9z"></path> <linearGradient id="SVGID_21_" gradientUnits="userSpaceOnUse" x1="639.1033" y1="1207.9252" x2="645.3488" y2="1207.9252" gradientTransform="matrix(-0.1979 0.9802 0.9802 0.1979 -963.5587 -790.4265)"> <stop offset="0.14" style="stop-color:#E0E1E2"></stop> <stop offset="1" style="stop-color:#FFFFFF"></stop> </linearGradient> <path class="st33" d="M90.6,78.5c0.2-0.6,0.5-1,1-1.4c0.6-0.4,1.3-0.5,2-0.4l0,0c0.7,0.1,1.3,0.5,1.7,1.1c0.3,0.5,0.5,1.1,0.4,1.7 c1,0.2,1.3,0.6,1.3,0.6s0,0,0,0c0.2-1.1,0-2.2-0.6-3c-0.6-0.9-1.5-1.5-2.5-1.7l0,0c-1.1-0.2-2.2,0-3,0.6c-0.9,0.6-1.5,1.5-1.7,2.6 c0,0,0,0,0,0C89.2,78.6,89.7,78.3,90.6,78.5z"></path> <linearGradient id="SVGID_22_" gradientUnits="userSpaceOnUse" x1="104.6993" y1="203.4035" x2="104.6993" y2="212.4384" gradientTransform="matrix(0.9802 0.1979 0.1979 -0.9802 -36.1853 265.4395)"> <stop offset="0" style="stop-color:#FFFFFF"></stop> <stop offset="1" style="stop-color:#EBEBEC"></stop> </linearGradient> <polygon class="st34" points="110.2,79.6 110.3,78.9 106.4,78.1 104.9,85.5 108.8,86.3 109,85.5 105.9,84.9 106.5,82 109.5,82.6 109.6,81.8 106.6,81.2 107.1,79 "></polygon> <linearGradient id="SVGID_23_" gradientUnits="userSpaceOnUse" x1="111.1653" y1="203.3955" x2="111.1653" y2="212.4463" gradientTransform="matrix(0.9802 0.1979 0.1979 -0.9802 -36.1853 265.4395)"> <stop offset="0" style="stop-color:#FFFFFF"></stop> <stop offset="1" style="stop-color:#EBEBEC"></stop> </linearGradient> <path class="st35" d="M117.5,80.7c-1.4-1.2-3.5-1.3-5-0.1c-0.7,0.6-1.3,1.4-1.4,2.3c-0.2,1,0,2.1,0.6,2.9c0.6,0.9,1.5,1.5,2.5,1.7 c0.7,0.1,1.4,0.1,2-0.1l0.2-1c-0.1,0.1-0.2,0.1-0.3,0.1c-0.2,0.1-0.4,0.1-0.6,0.2c-0.4,0.1-0.8,0.1-1.2,0c-0.8-0.1-1.5-0.6-2-1.3 c-0.5-0.7-0.6-1.5-0.4-2.4c0.2-0.8,0.6-1.5,1.3-2c0.7-0.5,1.5-0.7,2.3-0.5c0.7,0.2,1.3,0.5,1.8,1.1L117.5,80.7z"></path> <linearGradient id="SVGID_24_" gradientUnits="userSpaceOnUse" x1="119.4615" y1="81.0856" x2="119.4615" y2="90.1364" gradientTransform="matrix(0.9802 0.1979 -0.1979 0.9802 21.9693 -22.639)"> <stop offset="0" style="stop-color:#FFFFFF"></stop> <stop offset="1" style="stop-color:#EBEBEC"></stop> </linearGradient> <path class="st36" d="M125.4,82.9c-0.6-0.9-1.5-1.5-2.5-1.7c-1-0.2-2.1,0-3,0.6c-0.9,0.5-1.5,1.4-1.7,2.5c-0.2,1.2,0,2.2,0.7,3.1 c1.3,1.7,3.6,2.1,5.4,1c0.9-0.6,1.5-1.5,1.7-2.5C126.2,84.9,126,83.8,125.4,82.9L125.4,82.9z M123.8,87.7L123.8,87.7 c-1.4,0.9-3.3,0.6-4.3-0.8c-0.5-0.7-0.7-1.6-0.5-2.4c0.1-0.8,0.6-1.5,1.3-2c1.4-0.9,3.4-0.6,4.3,0.9c0.5,0.7,0.6,1.6,0.4,2.4 C125,86.5,124.5,87.3,123.8,87.7L123.8,87.7z"></path> <linearGradient id="SVGID_25_" gradientUnits="userSpaceOnUse" x1="126.8412" y1="203.4035" x2="126.8412" y2="212.4384" gradientTransform="matrix(0.9802 0.1979 0.1979 -0.9802 -36.1853 265.4395)"> <stop offset="0" style="stop-color:#FFFFFF"></stop> <stop offset="1" style="stop-color:#EBEBEC"></stop> </linearGradient> <polygon class="st37" points="128.5,82.5 127,89.9 130.1,90.6 130.3,89.8 128,89.4 129.3,82.7 "></polygon> <linearGradient id="SVGID_26_" gradientUnits="userSpaceOnUse" x1="133.1377" y1="81.0856" x2="133.1377" y2="90.1364" gradientTransform="matrix(0.9802 0.1979 -0.1979 0.9802 21.9693 -22.639)"> <stop offset="0" style="stop-color:#FFFFFF"></stop> <stop offset="1" style="stop-color:#EBEBEC"></stop> </linearGradient> <path class="st38" d="M133.3,84.5c-0.9,0.5-1.5,1.4-1.7,2.5c-0.2,1.2,0,2.2,0.7,3.1c1.3,1.7,3.6,2.1,5.4,1 c0.9-0.6,1.5-1.5,1.7-2.5c0.2-1,0-2.1-0.6-2.9l0,0c-0.6-0.9-1.5-1.5-2.5-1.7C135.3,83.7,134.2,83.9,133.3,84.5z M138.5,88.4 c-0.2,0.8-0.6,1.6-1.3,2l0,0c-1.4,0.9-3.3,0.6-4.3-0.8c-0.5-0.7-0.7-1.6-0.5-2.4c0.1-0.8,0.6-1.5,1.3-2c1.4-0.9,3.4-0.6,4.3,0.9 C138.6,86.7,138.7,87.6,138.5,88.4L138.5,88.4z"></path> <linearGradient id="SVGID_27_" gradientUnits="userSpaceOnUse" x1="142.2258" y1="203.3955" x2="142.2258" y2="212.4463" gradientTransform="matrix(0.9802 0.1979 0.1979 -0.9802 -36.1853 265.4395)"> <stop offset="0" style="stop-color:#FFFFFF"></stop> <stop offset="1" style="stop-color:#EBEBEC"></stop> </linearGradient> <path class="st39" d="M147,86.5c-1.8-1.3-4.2-0.9-5.5,0.8c-0.3,0.5-0.6,1-0.7,1.6c-0.2,1,0,2.1,0.6,2.9c0.5,0.9,1.4,1.5,2.4,1.7 c1,0.2,2,0,2.8-0.6c0.4-0.3,0.6-0.6,0.9-1c0.2-0.5,0.4-0.9,0.5-1.5l0-0.1l-4.1-0.8l-0.2,0.8l3.2,0.6l-0.1,0.2 c-0.2,0.6-0.6,1.1-1.1,1.4c-0.5,0.3-1.2,0.4-1.8,0.3c-0.7-0.2-1.4-0.6-1.8-1.2c-0.5-0.7-0.7-1.6-0.5-2.5c0.1-0.8,0.6-1.6,1.3-2 c0.7-0.5,1.5-0.6,2.4-0.5c0.9,0.2,1.6,0.7,2.1,1.7l0.7-0.4C147.8,87.3,147.4,86.8,147,86.5z"></path> <linearGradient id="SVGID_28_" gradientUnits="userSpaceOnUse" x1="149.5173" y1="203.4035" x2="149.5173" y2="212.4384" gradientTransform="matrix(0.9802 0.1979 0.1979 -0.9802 -36.1853 265.4395)"> <stop offset="0" style="stop-color:#FFFFFF"></stop> <stop offset="1" style="stop-color:#EBEBEC"></stop> </linearGradient> <polygon class="st40" points="154.2,87.7 151.6,90.6 150.4,87 149.5,86.8 151,91.4 150.4,94.7 151.2,94.8 151.9,91.6 151.9,91.6 155.1,87.9 "></polygon> </g> </g> </svg> 